<svg id="assets" xmlns="http://www.w3.org/2000/svg" width="22" height="22" viewBox="0 0 22 22">
  <path id="Path_15959" data-name="Path 15959" d="M2.733,24.031h2.2a.734.734,0,0,0,.733-.733v-.733h8.289a9.819,9.819,0,0,0,9.67-8.113l.159-.9A1.377,1.377,0,0,0,21.8,12.083V10.465h.367a.367.367,0,0,0,.259-.626L19.493,6.905a.366.366,0,0,0-.518,0l-.841.841V2.765a.367.367,0,0,0-.367-.367H14.1a.367.367,0,0,0-.367.367V6.8H12.248A5.971,5.971,0,0,0,11.6,5.617l.927-2.265a.635.635,0,0,0-.871-.813l-.693.346L10.522,2.3a.636.636,0,0,0-.958-.069l-.558.557L8.64,2.3a.636.636,0,0,0-.958-.069l-.7.7-1.057-.3a.635.635,0,0,0-.733.914L6.3,5.6a6.975,6.975,0,0,0-1.729,4.475V11.2a2.2,2.2,0,0,0,2.2,2.2H20.84l-.774,1.549-2.016.864A1.831,1.831,0,0,0,16.3,14.5H11.021a10.144,10.144,0,0,0-5.354,1.52v-.787a.734.734,0,0,0-.733-.733h-2.2A.734.734,0,0,0,2,15.231V23.3a.734.734,0,0,0,.733.733ZM6.832,3.66A.635.635,0,0,0,7.456,3.5l.665-.665.367.489a.636.636,0,0,0,.958.068L10,2.834l.418.557a.634.634,0,0,0,.793.188l.534-.267L10.92,5.331H9.927l.468-.936-.656-.328L9.107,5.331H8.464L7.953,4.268l-.661.318.358.745H6.985L5.942,3.406Zm3.6,3.5v5.5H6.767A1.468,1.468,0,0,1,5.3,11.2V10.073A6.2,6.2,0,0,1,6.862,6.065h4.153a3.951,3.951,0,0,1,.422.733H10.8A.367.367,0,0,0,10.433,7.165Zm.733.367h2.567v5.133H11.167Zm8.067.152,2.048,2.048h-4.1ZM14.467,3.131H17.4V8.479L16.041,9.839a.367.367,0,0,0,.259.626h.367v2.2h-2.2ZM17.4,10.465h3.667v2.2h-.733V11.2a.367.367,0,0,0-.367-.367H18.5a.367.367,0,0,0-.367.367v1.467H17.4Zm2.2,2.2h-.733v-1.1H19.6Zm-8.579,2.567H16.3a1.1,1.1,0,1,1,0,2.2H10.433v.733H16.3a1.83,1.83,0,0,0,1.808-1.581l2.37-1.016a.364.364,0,0,0,.184-.173l1.187-2.373a.647.647,0,0,1,1.215.4l-.159.9a9.086,9.086,0,0,1-8.948,7.507H5.667V16.9a9.419,9.419,0,0,1,5.354-1.664Zm-8.288,0h2.2V23.3h-2.2Z" transform="translate(-2 -2.031)"/>
  <path id="Path_15960" data-name="Path 15960" d="M6,41h.733v1.1H6Z" transform="translate(-4.533 -26.7)"/>
  <path id="Path_15961" data-name="Path 15961" d="M38,7h.367v.733H38Z" transform="translate(-24.8 -5.167)"/>
  <path id="Path_15962" data-name="Path 15962" d="M41,7h.367v.733H41Z" transform="translate(-26.7 -5.167)"/>
  <path id="Path_15963" data-name="Path 15963" d="M38,11h.367v.733H38Z" transform="translate(-24.8 -7.7)"/>
  <path id="Path_15964" data-name="Path 15964" d="M41,11h.367v.733H41Z" transform="translate(-26.7 -7.7)"/>
  <path id="Path_15965" data-name="Path 15965" d="M38,15h.367v.733H38Z" transform="translate(-24.8 -10.233)"/>
  <path id="Path_15966" data-name="Path 15966" d="M41,15h.367v.733H41Z" transform="translate(-26.7 -10.233)"/>
  <path id="Path_15967" data-name="Path 15967" d="M29,19h.367v.733H29Z" transform="translate(-19.1 -12.767)"/>
  <path id="Path_15968" data-name="Path 15968" d="M32,19h.367v.733H32Z" transform="translate(-21 -12.767)"/>
  <path id="Path_15969" data-name="Path 15969" d="M29,23h.367v.733H29Z" transform="translate(-19.1 -15.3)"/>
  <path id="Path_15970" data-name="Path 15970" d="M32,23h.367v.733H32Z" transform="translate(-21 -15.3)"/>
  <path id="Path_15971" data-name="Path 15971" d="M29,27h.367v.733H29Z" transform="translate(-19.1 -17.833)"/>
  <path id="Path_15972" data-name="Path 15972" d="M32,27h.367v.733H32Z" transform="translate(-21 -17.833)"/>
  <path id="Path_15973" data-name="Path 15973" d="M38,19h.367v.733H38Z" transform="translate(-24.8 -12.767)"/>
  <path id="Path_15974" data-name="Path 15974" d="M41,19h.367v.733H41Z" transform="translate(-26.7 -12.767)"/>
  <path id="Path_15976" data-name="Path 15976" d="M53,4h.733v.733H53Z" transform="translate(-34.3 -3.267)"/>
  <path id="Path_15977" data-name="Path 15977" d="M55,2h.733v.733H55Z" transform="translate(-35.567 -2)"/>
  <path id="Path_15978" data-name="Path 15978" d="M57,4h.733v.733H57Z" transform="translate(-36.833 -3.267)"/>
  <path id="Path_15979" data-name="Path 15979" d="M55,6h.733v.733H55Z" transform="translate(-35.567 -4.533)"/>
  <path id="Path_15980" data-name="Path 15980" d="M60,9h.733v.733H60Z" transform="translate(-38.733 -6.433)"/>
  <path id="Path_15981" data-name="Path 15981" d="M53,12h.733v.733H53Z" transform="translate(-34.3 -8.333)"/>
  <path id="Path_15982" data-name="Path 15982" d="M2,11h.733v.733H2Z" transform="translate(-2 -7.7)"/>
  <path id="Path_15983" data-name="Path 15983" d="M4,9h.733v.733H4Z" transform="translate(-3.267 -6.433)"/>
  <path id="Path_15984" data-name="Path 15984" d="M6,11h.733v.733H6Z" transform="translate(-4.533 -7.7)"/>
  <path id="Path_15985" data-name="Path 15985" d="M4,13h.733v.733H4Z" transform="translate(-3.267 -8.967)"/>
  <path id="Path_15986" data-name="Path 15986" d="M2,19h.733v.733H2Z" transform="translate(-2 -12.767)"/>
  <path id="Path_15987" data-name="Path 15987" d="M6,2h.733v.733H6Z" transform="translate(-4.533 -2)"/>
</svg>
