<svg xmlns="http://www.w3.org/2000/svg" width="19.336" height="22" viewBox="0 0 19.336 22">
  <g id="bin" transform="translate(0)">
    <g id="Group_455" data-name="Group 455" transform="translate(1.399 5.71)">
      <g id="Group_454" data-name="Group 454" transform="translate(0)">
        <path id="Path_198" data-name="Path 198" d="M62.2,150l1.133,14.433a1.974,1.974,0,0,0,1.911,1.857H75.687a1.974,1.974,0,0,0,1.911-1.857L78.732,150Zm5.065,13.589a.655.655,0,0,1-.638-.633l-.64-10.89a.663.663,0,0,1,.6-.716.643.643,0,0,1,.678.631l.64,10.89a.661.661,0,0,1-.635.718Zm3.838-.675a.641.641,0,1,1-1.279,0v-10.89a.641.641,0,1,1,1.279,0Zm3.837-10.847-.64,10.89a.652.652,0,0,1-.678.631.663.663,0,0,1-.6-.716l.64-10.89a.641.641,0,1,1,1.277.084Z" transform="translate(-62.2 -150)"/>
      </g>
    </g>
    <g id="Group_457" data-name="Group 457" transform="translate(0)">
      <g id="Group_456" data-name="Group 456">
        <path id="Path_199" data-name="Path 199" d="M49.046,2.7H45.179V2.025A1.983,1.983,0,0,0,43.245,0H38.09a1.983,1.983,0,0,0-1.934,2.025V2.7H32.289A1.321,1.321,0,0,0,31,4.05,1.321,1.321,0,0,0,32.289,5.4H49.046a1.321,1.321,0,0,0,1.289-1.35A1.321,1.321,0,0,0,49.046,2.7Zm-5.156,0H37.445V2.025a.661.661,0,0,1,.645-.675h5.156a.661.661,0,0,1,.645.675Z" transform="translate(-31)"/>
      </g>
    </g>
  </g>
</svg>
