<svg xmlns="http://www.w3.org/2000/svg" width="22" height="22" viewBox="0 0 22 22">
  <g id="booking" transform="translate(-17.25 -17.25)">
    <path id="Path_46" data-name="Path 46" d="M36.6,19.279v-.521a1.508,1.508,0,1,0-3.016,0v.5H32.036v-.5a1.507,1.507,0,1,0-3.014,0v.5H27.478v-.5a1.507,1.507,0,1,0-3.014,0v.5H22.921v-.5a1.508,1.508,0,1,0-3.016,0v.521a3.024,3.024,0,0,0-2.654,3V36.229a3.025,3.025,0,0,0,3.021,3.021H36.229a3.025,3.025,0,0,0,3.021-3.021V22.276A3.024,3.024,0,0,0,36.6,19.279ZM34.4,18.758a.685.685,0,1,1,1.369,0v1.816a.685.685,0,0,1-1.369,0Zm-4.558,0a.684.684,0,1,1,1.367,0v1.816a.684.684,0,0,1-1.367,0Zm-4.558,0a.684.684,0,1,1,1.367,0v1.816a.684.684,0,0,1-1.367,0Zm-4.56,0a.685.685,0,1,1,1.369,0v1.816a.685.685,0,0,1-1.369,0ZM19.9,20.111v.463a1.508,1.508,0,0,0,3.016,0v-.5h1.544v.5a1.507,1.507,0,0,0,3.014,0v-.5h1.544v.5a1.507,1.507,0,1,0,3.014,0v-.5h1.544v.5a1.508,1.508,0,0,0,3.016,0v-.463a2.2,2.2,0,0,1,1.831,2.165v1.239H18.074v-1.24A2.2,2.2,0,0,1,19.9,20.111ZM36.229,38.426H20.271a2.2,2.2,0,0,1-2.2-2.2V24.339H38.426V36.229A2.2,2.2,0,0,1,36.229,38.426Z" transform="translate(0)"/>
    <path id="Path_47" data-name="Path 47" d="M32.732,56.135H31.07a1.093,1.093,0,0,0-1.092,1.092v1.663a1.093,1.093,0,0,0,1.092,1.092h1.663a1.093,1.093,0,0,0,1.092-1.092V57.227A1.093,1.093,0,0,0,32.732,56.135ZM33,58.889a.268.268,0,0,1-.268.268H31.07a.268.268,0,0,1-.268-.268V57.227a.268.268,0,0,1,.268-.268h1.663a.268.268,0,0,1,.268.268Z" transform="translate(-9.733 -29.736)"/>
    <path id="Path_48" data-name="Path 48" d="M58.581,56.135H56.919a1.093,1.093,0,0,0-1.092,1.092v1.663a1.093,1.093,0,0,0,1.092,1.092h1.663a1.093,1.093,0,0,0,1.092-1.092V57.227A1.093,1.093,0,0,0,58.581,56.135Zm.268,2.754a.268.268,0,0,1-.268.268H56.919a.268.268,0,0,1-.268-.268V57.227a.268.268,0,0,1,.268-.268h1.663a.268.268,0,0,1,.268.268Z" transform="translate(-29.5 -29.736)"/>
    <path id="Path_49" data-name="Path 49" d="M84.491,58.134,82.644,59.98,81.76,59.1a.412.412,0,1,0-.582.582l1.175,1.175a.412.412,0,0,0,.582,0l2.138-2.138a.412.412,0,0,0-.582-.582Z" transform="translate(-48.794 -31.171)"/>
    <path id="Path_50" data-name="Path 50" d="M32.732,80.241H31.07a1.093,1.093,0,0,0-1.092,1.092V83a1.093,1.093,0,0,0,1.092,1.092h1.663A1.093,1.093,0,0,0,33.824,83V81.333A1.093,1.093,0,0,0,32.732,80.241ZM33,83a.268.268,0,0,1-.268.268H31.07A.268.268,0,0,1,30.8,83V81.333a.268.268,0,0,1,.268-.268h1.663a.268.268,0,0,1,.268.268Z" transform="translate(-9.733 -48.17)"/>
    <path id="Path_51" data-name="Path 51" d="M58.581,80.241H56.919a1.093,1.093,0,0,0-1.092,1.092V83a1.093,1.093,0,0,0,1.092,1.092h1.663A1.093,1.093,0,0,0,59.673,83V81.333A1.093,1.093,0,0,0,58.581,80.241ZM58.85,83a.268.268,0,0,1-.268.268H56.919A.268.268,0,0,1,56.651,83V81.333a.268.268,0,0,1,.268-.268h1.663a.268.268,0,0,1,.268.268Z" transform="translate(-29.5 -48.17)"/>
    <path id="Path_52" data-name="Path 52" d="M84.43,80.241H82.768a1.093,1.093,0,0,0-1.092,1.092V83a1.093,1.093,0,0,0,1.092,1.092H84.43A1.093,1.093,0,0,0,85.522,83V81.333A1.093,1.093,0,0,0,84.43,80.241ZM84.7,83a.268.268,0,0,1-.268.268H82.768A.268.268,0,0,1,82.5,83V81.333a.268.268,0,0,1,.268-.268H84.43a.268.268,0,0,1,.268.268Z" transform="translate(-49.267 -48.17)"/>
  </g>
</svg>
