<svg xmlns="http://www.w3.org/2000/svg" width="22" height="22.493" viewBox="0 0 22 22.493">
  <g id="budget" transform="translate(-10 -5)">
    <path id="Path_77" data-name="Path 77" d="M314.3,253h-7.028a.272.272,0,0,0-.272.272v1.587a.272.272,0,0,0,.272.272H314.3a.272.272,0,0,0,.272-.272v-1.587A.272.272,0,0,0,314.3,253Zm-.317,1.587h-6.438v-1.043h6.438Z" transform="translate(-283.796 -236.902)"/>
    <path id="Path_78" data-name="Path 78" d="M310.645,436.565a1.088,1.088,0,1,0-1.088-1.088A1.088,1.088,0,0,0,310.645,436.565Zm0-1.633a.544.544,0,1,1-.544.544.544.544,0,0,1,.544-.544Z" transform="translate(-286.152 -410.187)"/>
    <path id="Path_79" data-name="Path 79" d="M367.6,436.565a1.088,1.088,0,1,0-1.088-1.088A1.088,1.088,0,0,0,367.6,436.565Zm0-1.633a.544.544,0,1,1-.544.544.544.544,0,0,1,.544-.544Z" transform="translate(-340.554 -410.187)"/>
    <path id="Path_80" data-name="Path 80" d="M424.546,436.565a1.088,1.088,0,1,0-1.088-1.088A1.088,1.088,0,0,0,424.546,436.565Zm0-1.633a.544.544,0,1,1-.544.544.544.544,0,0,1,.544-.544Z" transform="translate(-394.974 -410.187)"/>
    <path id="Path_81" data-name="Path 81" d="M310.645,383.59a1.088,1.088,0,1,0-1.088-1.088A1.088,1.088,0,0,0,310.645,383.59Zm0-1.633a.544.544,0,1,1-.544.544A.544.544,0,0,1,310.645,381.957Z" transform="translate(-286.152 -359.568)"/>
    <path id="Path_82" data-name="Path 82" d="M367.6,383.59a1.088,1.088,0,1,0-1.088-1.088A1.088,1.088,0,0,0,367.6,383.59Zm0-1.633a.544.544,0,1,1-.544.544A.544.544,0,0,1,367.6,381.957Z" transform="translate(-340.554 -359.568)"/>
    <path id="Path_83" data-name="Path 83" d="M424.546,383.59a1.088,1.088,0,1,0-1.088-1.088A1.088,1.088,0,0,0,424.546,383.59Zm0-1.633a.544.544,0,1,1-.544.544A.544.544,0,0,1,424.546,381.957Z" transform="translate(-394.974 -359.568)"/>
    <path id="Path_84" data-name="Path 84" d="M310.645,330.618a1.088,1.088,0,1,0-1.088-1.088A1.088,1.088,0,0,0,310.645,330.618Zm0-1.633a.544.544,0,1,1-.544.544A.544.544,0,0,1,310.645,328.985Z" transform="translate(-286.152 -308.967)"/>
    <path id="Path_85" data-name="Path 85" d="M367.6,330.618a1.088,1.088,0,1,0-1.088-1.088A1.088,1.088,0,0,0,367.6,330.618Zm0-1.633a.544.544,0,1,1-.544.544A.544.544,0,0,1,367.6,328.985Z" transform="translate(-340.554 -308.967)"/>
    <path id="Path_86" data-name="Path 86" d="M424.546,330.618a1.088,1.088,0,1,0-1.088-1.088A1.088,1.088,0,0,0,424.546,330.618Zm0-1.633a.544.544,0,1,1-.544.544A.544.544,0,0,1,424.546,328.985Z" transform="translate(-394.974 -308.967)"/>
    <path id="Path_87" data-name="Path 87" d="M156.657,309h-2.834a.272.272,0,1,0,0,.544h2.834a.272.272,0,0,0,0-.544Z" transform="translate(-137.133 -290.383)"/>
    <path id="Path_88" data-name="Path 88" d="M125.257,309.544h.277a.272.272,0,0,0,0-.544h-.277a.272.272,0,0,0,0,.544Z" transform="translate(-109.835 -290.383)"/>
    <path id="Path_89" data-name="Path 89" d="M176.26,360h-1.48a.272.272,0,1,0,0,.544h1.48a.272.272,0,0,0,0-.544Z" transform="translate(-157.146 -339.098)"/>
    <path id="Path_90" data-name="Path 90" d="M126.44,360h-1.182a.272.272,0,0,0,0,.544h1.182a.272.272,0,0,0,0-.544Z" transform="translate(-109.838 -339.098)"/>
    <path id="Path_91" data-name="Path 91" d="M101.272,46.806a.272.272,0,0,0-.272.272v.109a.272.272,0,1,0,.544,0v-.109A.272.272,0,0,0,101.272,46.806Z" transform="translate(-86.924 -39.911)"/>
    <path id="Path_92" data-name="Path 92" d="M101.272,72.649a.272.272,0,0,0-.272.272v3.6a.272.272,0,0,0,.544,0v-3.6A.272.272,0,0,0,101.272,72.649Z" transform="translate(-86.924 -64.582)"/>
    <path id="Path_93" data-name="Path 93" d="M146.078,64.854a4.014,4.014,0,1,0,4.014,4.014A4.014,4.014,0,0,0,146.078,64.854Zm3.464,3.815h-2.88l2.053-2.053A3.454,3.454,0,0,1,149.542,68.669ZM146.078,65.4a3.454,3.454,0,0,1,2.252.833l-2.251,2.251-1.771-2.6A3.448,3.448,0,0,1,146.078,65.4Zm0,6.94a3.468,3.468,0,0,1-2.215-6.139l1.975,2.9a.272.272,0,0,0,.225.119h3.468a3.475,3.475,0,0,1-3.453,3.125Z" transform="translate(-126.186 -57.14)"/>
    <path id="Path_94" data-name="Path 94" d="M30.638,14.992H27.026V9.2a.747.747,0,0,0-.212-.526L23.453,5.227A.754.754,0,0,0,22.916,5h-9.4a.74.74,0,0,0-.735.753v.725h-.715a.751.751,0,0,0-.538.211.731.731,0,0,0-.226.522v.432h-.542a.745.745,0,0,0-.535.212A.73.73,0,0,0,10,8.379V26.238a.765.765,0,0,0,.758.762H22.321a1.359,1.359,0,0,0,1.048.493h7.268A1.362,1.362,0,0,0,32,26.131V16.354a1.362,1.362,0,0,0-1.362-1.362ZM23.308,5.847l2.827,2.917H24.669a1.362,1.362,0,0,1-.963-.41,1.377,1.377,0,0,1-.4-.973ZM11.837,7.212a.2.2,0,0,1,.069-.142.218.218,0,0,1,.158-.053h.715V23.661a.728.728,0,0,0,.736.741h8.494v.851H12.063a.239.239,0,0,1-.226-.231ZM10.758,26.462a.224.224,0,0,1-.155-.068.227.227,0,0,1-.066-.157V8.378a.2.2,0,0,1,.065-.143.212.212,0,0,1,.155-.054H11.3V25.022a.776.776,0,0,0,.764.768h9.945v.341a1.363,1.363,0,0,0,.041.331Zm11.25-10.109v2.391a.268.268,0,0,0-.226-.123H20.776a.269.269,0,0,0,0,.538h1.006a.268.268,0,0,0,.226-.123v1.871H20.136a.269.269,0,1,0,0,.538h1.872v2.42H13.514a.189.189,0,0,1-.144-.057.193.193,0,0,1-.055-.146V5.753a.2.2,0,0,1,.2-.215H22.77V7.381a1.917,1.917,0,0,0,1.9,1.921h1.821v5.69H23.37a1.362,1.362,0,0,0-1.362,1.362Zm9.5,9.778a.83.83,0,0,1-.829.824H23.391a.844.844,0,0,1-.846-.824V19.159h8.961Zm0-7.51H22.546V16.355a.845.845,0,0,1,.846-.825h7.286a.83.83,0,0,1,.829.825Z" transform="translate(0 0)"/>
  </g>
</svg>
