<svg id="calendar" xmlns="http://www.w3.org/2000/svg" width="22" height="22" viewBox="0 0 22 22">
  <path id="Path_15926" data-name="Path 15926" d="M31.58,44.868l-.7.094a5.031,5.031,0,0,1,.044.663h.71A5.719,5.719,0,0,0,31.58,44.868Z" transform="translate(-20.275 -29.302)"/>
  <path id="Path_15927" data-name="Path 15927" d="M21.935,3.129h-.355V2.065A1.066,1.066,0,0,0,20.516,1h-.71a1.066,1.066,0,0,0-1.065,1.065V3.129H8.806V2.065A1.066,1.066,0,0,0,7.742,1h-.71A1.066,1.066,0,0,0,5.968,2.065V3.129H5.613A1.066,1.066,0,0,0,4.548,4.194v7.87a5.675,5.675,0,1,0,7.388,7.388h10A1.066,1.066,0,0,0,23,18.387V4.194A1.066,1.066,0,0,0,21.935,3.129ZM19.452,2.065a.355.355,0,0,1,.355-.355h.71a.355.355,0,0,1,.355.355V4.9a.355.355,0,0,1-.355.355h-.71a.355.355,0,0,1-.355-.355Zm-12.774,0a.355.355,0,0,1,.355-.355h.71a.355.355,0,0,1,.355.355V4.9a.355.355,0,0,1-.355.355h-.71A.355.355,0,0,1,6.677,4.9ZM11.6,17.985A4.966,4.966,0,1,1,11.467,16l.684-.188a5.65,5.65,0,0,0-6.893-3.977V4.194a.355.355,0,0,1,.355-.355h.355V4.9A1.066,1.066,0,0,0,7.032,5.968h.71A1.066,1.066,0,0,0,8.806,4.9V3.839h9.935V4.9a1.066,1.066,0,0,0,1.065,1.065h.71A1.066,1.066,0,0,0,21.581,4.9V3.839h.355a.355.355,0,0,1,.355.355V7.387H7.387V8.1h14.9v7.054l-1.131-1.583a.354.354,0,0,0-.243-.146.363.363,0,0,0-.273.079l-1.192.993v-1.43h2.129v-.71H19.1a.355.355,0,0,0-.355.355v2.377l-4.387,3.656H12.171a5.592,5.592,0,0,0,.134-.663Zm9.2-3.694,1.3,1.819-5.921,2.631h-.718Zm1.131,4.45H17.93L22.29,16.8v1.583A.355.355,0,0,1,21.935,18.742Z" transform="translate(-1 -1)"/>
  <path id="Path_15928" data-name="Path 15928" d="M15,19h.71v.71H15Z" transform="translate(-10.032 -12.613)"/>
  <path id="Path_15929" data-name="Path 15929" d="M17.839,25.484V23.355A.355.355,0,0,0,17.484,23H15.355a.355.355,0,0,0-.355.355v2.129a.355.355,0,0,0,.355.355h2.129A.355.355,0,0,0,17.839,25.484Zm-.71-.355H15.71V23.71h1.419Z" transform="translate(-10.032 -15.194)"/>
  <path id="Path_15930" data-name="Path 15930" d="M29.484,25.839a.355.355,0,0,0,.355-.355V23.355A.355.355,0,0,0,29.484,23H27.355a.355.355,0,0,0-.355.355v2.129a.355.355,0,0,0,.355.355ZM27.71,23.71h1.419v1.419H27.71Z" transform="translate(-17.774 -15.194)"/>
  <path id="Path_15931" data-name="Path 15931" d="M39.355,25.839h2.129a.355.355,0,0,0,.355-.355V23.355A.355.355,0,0,0,41.484,23H39.355a.355.355,0,0,0-.355.355v2.129A.355.355,0,0,0,39.355,25.839Zm.355-2.129h1.419v1.419H39.71Z" transform="translate(-25.516 -15.194)"/>
  <path id="Path_15932" data-name="Path 15932" d="M51.355,25.839h2.129a.355.355,0,0,0,.355-.355V23.355A.355.355,0,0,0,53.484,23H51.355a.355.355,0,0,0-.355.355v2.129A.355.355,0,0,0,51.355,25.839Zm.355-2.129h1.419v1.419H51.71Z" transform="translate(-33.258 -15.194)"/>
  <path id="Path_15933" data-name="Path 15933" d="M29.774,35.839h.71V33.355A.355.355,0,0,0,30.129,33H28v.71h1.774Z" transform="translate(-18.419 -21.645)"/>
  <path id="Path_15934" data-name="Path 15934" d="M39.355,35.839h2.129a.355.355,0,0,0,.355-.355V33.355A.355.355,0,0,0,41.484,33H39.355a.355.355,0,0,0-.355.355v2.129A.355.355,0,0,0,39.355,35.839Zm.355-2.129h1.419v1.419H39.71Z" transform="translate(-25.516 -21.645)"/>
  <path id="Path_15935" data-name="Path 15935" d="M13.451,37.484H11.2l-.972-2.269a.355.355,0,0,0-.652,0L8.6,37.484H6.355a.355.355,0,0,0-.251.606L7.73,39.716,7.078,42a.355.355,0,0,0,.548.386L9.9,40.759l2.278,1.627A.355.355,0,0,0,12.728,42l-.653-2.283L13.7,38.089a.354.354,0,0,0-.251-.605Zm-2.025,1.878a.355.355,0,0,0-.09.348l.431,1.507-1.657-1.184a.354.354,0,0,0-.412,0L8.039,41.218,8.47,39.71a.354.354,0,0,0-.09-.348L7.211,38.194H8.839a.354.354,0,0,0,.326-.215L9.9,36.256l.738,1.722a.354.354,0,0,0,.326.215h1.627Z" transform="translate(-4.226 -22.935)"/>
</svg>
