<svg xmlns="http://www.w3.org/2000/svg" width="22" height="24.514" viewBox="0 0 22 24.514">
  <path id="calendar_1_" data-name="calendar (1)" d="M10.479,2.25a.943.943,0,0,1,.943.943V4.764h5.657V3.193a.943.943,0,1,1,1.886,0V4.764h2.829A3.457,3.457,0,0,1,25.25,8.221v2.514a.943.943,0,1,1-1.886,0V8.221A1.571,1.571,0,0,0,21.793,6.65H18.964V8.221a.943.943,0,1,1-1.886,0V6.65H11.421V8.221a.943.943,0,0,1-1.886,0V6.65H6.707A1.571,1.571,0,0,0,5.136,8.221v4.086h5.343a.943.943,0,1,1,0,1.886H5.136v9.114a1.571,1.571,0,0,0,1.571,1.571h3.771a.943.943,0,1,1,0,1.886H6.707A3.457,3.457,0,0,1,3.25,23.307V8.221A3.457,3.457,0,0,1,6.707,4.764H9.536V3.193A.943.943,0,0,1,10.479,2.25Zm4.362,14.1a.943.943,0,0,1,1.333,0l3.733,3.733,3.733-3.733a.943.943,0,0,1,1.333,1.333l-3.733,3.733,3.733,3.733a.943.943,0,1,1-1.333,1.333l-3.733-3.733-3.733,3.733a.943.943,0,1,1-1.333-1.333l3.733-3.733L14.84,17.688a.943.943,0,0,1,0-1.333Z" transform="translate(-3.25 -2.25)" fill-rule="evenodd"/>
</svg>
