<svg xmlns="http://www.w3.org/2000/svg" width="22" height="21.495" viewBox="0 0 22 21.495">
  <g id="customer-support" transform="translate(-0.643 -1.361)">
    <path id="Path_61" data-name="Path 61" d="M21.292,10.672a9.655,9.655,0,0,0-19.3,0A2.271,2.271,0,0,0,.643,12.745v2.547a2.271,2.271,0,0,0,2.269,2.269A1.47,1.47,0,0,0,4.38,16.094v-4.15A1.465,1.465,0,0,0,3.056,10.49a8.6,8.6,0,0,1,17.173,0,1.465,1.465,0,0,0-1.322,1.453v4.149a1.464,1.464,0,0,0,1.342,1.455V18.6a2.144,2.144,0,0,1-2.142,2.141H16.521a1.576,1.576,0,0,0-1.5-1.066H13.389a1.569,1.569,0,0,0-.666.146,1.6,1.6,0,0,0-.926,1.446,1.594,1.594,0,0,0,1.592,1.592h1.635a1.6,1.6,0,0,0,1.5-1.066h1.585A3.2,3.2,0,0,0,21.3,18.6V17.361a2.271,2.271,0,0,0,1.342-2.069V12.745A2.271,2.271,0,0,0,21.292,10.672ZM3.327,11.944v4.149a.416.416,0,0,1-.416.416A1.218,1.218,0,0,1,1.7,15.292V12.745a1.218,1.218,0,0,1,1.217-1.217A.416.416,0,0,1,3.327,11.944Zm12.224,9.433a.542.542,0,0,1-.528.428H13.389a.54.54,0,0,1-.224-1.031.523.523,0,0,1,.224-.049h1.635a.542.542,0,0,1,.528.652Zm6.039-6.085a1.218,1.218,0,0,1-1.217,1.217.416.416,0,0,1-.416-.416V11.944a.416.416,0,0,1,.416-.416,1.218,1.218,0,0,1,1.217,1.217Z"/>
    <path id="Path_62" data-name="Path 62" d="M24.975,24.931A2.232,2.232,0,0,0,27.2,22.7V18.159a2.232,2.232,0,0,0-2.23-2.23H18.161a2.232,2.232,0,0,0-2.23,2.23V22.7a2.232,2.232,0,0,0,2.23,2.23H18.2v1.177a1.093,1.093,0,0,0,1.092,1.1,1.07,1.07,0,0,0,.77-.325l1.958-1.948Zm-3.54-.9L19.316,26.14a.026.026,0,0,1-.036.008.035.035,0,0,1-.024-.04v-1.7a.526.526,0,0,0-.526-.526h-.568A1.179,1.179,0,0,1,16.984,22.7V18.159a1.178,1.178,0,0,1,1.177-1.177h6.814a1.18,1.18,0,0,1,1.177,1.177V22.7a1.179,1.179,0,0,1-1.177,1.177H21.806A.527.527,0,0,0,21.435,24.032Z" transform="translate(-9.925 -9.458)"/>
    <path id="Path_63" data-name="Path 63" d="M23.276,26.787a.776.776,0,1,0,.777.776A.778.778,0,0,0,23.276,26.787Z" transform="translate(-14.19 -16.507)"/>
    <path id="Path_64" data-name="Path 64" d="M30.562,26.787a.776.776,0,1,0,.777.776A.778.778,0,0,0,30.562,26.787Z" transform="translate(-18.92 -16.507)"/>
    <path id="Path_65" data-name="Path 65" d="M37.848,26.787a.776.776,0,1,0,.777.776A.778.778,0,0,0,37.848,26.787Z" transform="translate(-23.65 -16.507)"/>
  </g>
</svg>
