<svg id="delete" xmlns="http://www.w3.org/2000/svg" width="22" height="27.985" viewBox="0 0 22 27.985">
  <path id="Path_1926" data-name="Path 1926" d="M47.627,20.313H43.363V18.961a1.71,1.71,0,0,0-1.706-1.706H34.843a1.71,1.71,0,0,0-1.708,1.706v1.352H28.871a1.624,1.624,0,0,0-1.622,1.622v1.753a1.624,1.624,0,0,0,1.622,1.622h.021V42.982A2.26,2.26,0,0,0,31.15,45.24h14.2a2.26,2.26,0,0,0,2.257-2.258V25.31h.021a1.624,1.624,0,0,0,1.622-1.622V21.935A1.624,1.624,0,0,0,47.627,20.313ZM34.183,18.961a.661.661,0,0,1,.66-.659h6.812a.661.661,0,0,1,.659.659v1.352h-8.13ZM46.558,42.982a1.211,1.211,0,0,1-1.21,1.21H31.15a1.211,1.211,0,0,1-1.21-1.21V25.31H46.558ZM48.2,23.688a.575.575,0,0,1-.574.574H28.871a.575.575,0,0,1-.574-.574V21.935a.575.575,0,0,1,.574-.574H47.627a.575.575,0,0,1,.574.574Z" transform="translate(-27.249 -17.255)"/>
  <path id="Path_1927" data-name="Path 1927" d="M62.785,68a.535.535,0,0,0,.535-.535V56.41a.535.535,0,1,0-1.07,0V67.468a.535.535,0,0,0,.535.535Z" transform="translate(-51.785 -44.498)"/>
  <path id="Path_1928" data-name="Path 1928" d="M78.118,68a.535.535,0,0,0,.535-.535V56.41a.535.535,0,1,0-1.07,0V67.468a.535.535,0,0,0,.535.535Z" transform="translate(-62.533 -44.498)"/>
  <path id="Path_1929" data-name="Path 1929" d="M47.451,68a.535.535,0,0,0,.535-.535V56.41a.535.535,0,0,0-1.07,0V67.468a.535.535,0,0,0,.535.535Z" transform="translate(-41.036 -44.498)"/>
</svg>
