<svg xmlns="http://www.w3.org/2000/svg" width="22" height="20.168" viewBox="0 0 22 20.168">
  <g id="discount-voucher" transform="translate(0 -21.321)">
    <g id="Group_679" data-name="Group 679" transform="translate(0 21.321)">
      <g id="Group_678" data-name="Group 678" transform="translate(0 0)">
        <path id="Path_70" data-name="Path 70" d="M21.542,32.322A.458.458,0,0,0,22,31.863V29.572a1.835,1.835,0,0,0-1.833-1.833h-3.45a2.219,2.219,0,0,1-.217-.917,2.288,2.288,0,0,1,1.2-2,.459.459,0,0,0,.178-.63l-1.117-1.951a1.814,1.814,0,0,0-2.489-.671L.908,29.35a1.84,1.84,0,0,0-.666,2.5L1.4,33.868a.459.459,0,0,0,.635.165A2.252,2.252,0,0,1,3.208,33.7,2.281,2.281,0,0,1,5.38,35.309a2.287,2.287,0,0,1-2.172,1.6.458.458,0,0,0-.458.458v2.292a1.835,1.835,0,0,0,1.833,1.833H20.167A1.835,1.835,0,0,0,22,39.655V37.364a.458.458,0,0,0-.458-.458,2.292,2.292,0,0,1,0-4.583ZM14.736,22.36a.885.885,0,0,1,.681-.092.9.9,0,0,1,.551.426l.9,1.574a3.2,3.2,0,0,0-1.286,2.554,3.152,3.152,0,0,0,.142.917H5.5ZM3.208,32.78a3.146,3.146,0,0,0-1.231.254l-.938-1.64a.921.921,0,0,1,.331-1.252l1.405-.818a1.811,1.811,0,0,0-.025.248v2.292a.458.458,0,0,0,.458.458,2.284,2.284,0,0,1,1.972,1.143A3.183,3.183,0,0,0,3.208,32.78Zm15.125,1.833a3.213,3.213,0,0,0,2.75,3.176v1.866a.918.918,0,0,1-.917.917h-11v-.8a.458.458,0,1,0-.917,0v.8H4.583a.918.918,0,0,1-.917-.917V37.789a3.209,3.209,0,0,0,0-6.351V29.572a.918.918,0,0,1,.917-.917H8.25v1.031a.458.458,0,0,0,.917,0V28.655h11a.918.918,0,0,1,.917.917v1.866A3.213,3.213,0,0,0,18.333,34.613Z" transform="translate(0 -21.321)"/>
        <path id="Path_71" data-name="Path 71" d="M192.438,269.329a.454.454,0,0,0-.455.455v.909a.455.455,0,0,0,.909,0v-.909A.454.454,0,0,0,192.438,269.329Z" transform="translate(-183.731 -258.663)"/>
        <path id="Path_72" data-name="Path 72" d="M192.438,354.662a.454.454,0,0,0-.455.455v.909a.455.455,0,1,0,.909,0v-.909A.454.454,0,0,0,192.438,354.662Z" transform="translate(-183.731 -340.326)"/>
        <path id="Path_73" data-name="Path 73" d="M262.163,234.767a.455.455,0,0,0-.636.091l-5.454,7.273a.454.454,0,1,0,.727.545l5.454-7.273A.454.454,0,0,0,262.163,234.767Z" transform="translate(-244.944 -225.417)"/>
        <path id="Path_74" data-name="Path 74" d="M257.348,238.3c.765,0,1.364-.8,1.364-1.818s-.6-1.818-1.364-1.818-1.364.8-1.364,1.818S256.583,238.3,257.348,238.3Zm0-2.727c.186,0,.455.354.455.909s-.269.909-.455.909-.455-.354-.455-.909S257.162,235.571,257.348,235.571Z" transform="translate(-244.971 -225.478)"/>
        <path id="Path_75" data-name="Path 75" d="M342.681,341.329c-.765,0-1.364.8-1.364,1.818s.6,1.818,1.364,1.818,1.364-.8,1.364-1.818S343.445,341.329,342.681,341.329Zm0,2.727c-.186,0-.455-.354-.455-.909s.269-.909.455-.909.455.354.455.909S342.866,344.056,342.681,344.056Z" transform="translate(-326.633 -327.525)"/>
      </g>
    </g>
  </g>
</svg>
