<svg id="svgexport-18_10_" data-name="svgexport-18 (10)" xmlns="http://www.w3.org/2000/svg" width="22" height="22" viewBox="0 0 22 22">
  <path id="Path_126628" data-name="Path 126628" d="M139.91,10.44a.749.749,0,0,0-.681-.419h-2.995V.716A.733.733,0,0,0,135.485,0H132.49a.733.733,0,0,0-.749.716v9.305h-2.995a.752.752,0,0,0-.681.419.69.69,0,0,0,.118.767l5.241,5.726a.77.77,0,0,0,1.126,0l5.241-5.726A.689.689,0,0,0,139.91,10.44Z" transform="translate(-122.988)"/>
  <path id="Path_126629" data-name="Path 126629" d="M35.067,352v4.295H18.933V352H16v5.726a1.449,1.449,0,0,0,1.467,1.432H36.533A1.448,1.448,0,0,0,38,357.726V352Z" transform="translate(-16 -337.158)"/>
</svg>
