<svg xmlns="http://www.w3.org/2000/svg" width="25.045" height="22.65" viewBox="0 0 25.045 22.65">
  <g id="event" transform="matrix(0.819, -0.574, 0.574, 0.819, -65.101, -80.355)">
    <path id="Path_53" data-name="Path 53" d="M76.6,153.113H88.82a1.6,1.6,0,0,0,1.6-1.6V145.1a1.6,1.6,0,0,0-1.6-1.6H76.6a1.6,1.6,0,0,0-1.6,1.6v6.409A1.6,1.6,0,0,0,76.6,153.113Zm-.958-8.011a.961.961,0,0,1,.958-.961H88.82a.961.961,0,0,1,.958.961v6.409a.961.961,0,0,1-.958.961H76.6a.961.961,0,0,1-.958-.961Z" transform="translate(-71.708 -28.683)"/>
    <path id="Path_54" data-name="Path 54" d="M105.329,180.48h1.317a.323.323,0,0,0,.329-.317v-6.345a.323.323,0,0,0-.329-.317h-1.317a.323.323,0,0,0-.329.317v6.345A.323.323,0,0,0,105.329,180.48Zm.329-6.345h.658v5.711h-.658Z" transform="translate(-100.498 -57.367)"/>
    <path id="Path_55" data-name="Path 55" d="M165.329,180.48h7.329a.323.323,0,0,0,.329-.317v-6.345a.323.323,0,0,0-.329-.317h-7.329a.323.323,0,0,0-.329.317v2.538a.329.329,0,0,0,.658,0v-2.221h6.671v5.711h-6.671v-2.221a.329.329,0,0,0-.658,0v2.538A.323.323,0,0,0,165.329,180.48Z" transform="translate(-157.994 -57.367)"/>
    <path id="Path_56" data-name="Path 56" d="M362.329,180.48h1.317a.323.323,0,0,0,.329-.317v-6.345a.323.323,0,0,0-.329-.317h-1.317a.323.323,0,0,0-.329.317v6.345A.323.323,0,0,0,362.329,180.48Zm.329-6.345h.658v5.711h-.658Z" transform="translate(-346.477 -57.367)"/>
    <path id="Path_57" data-name="Path 57" d="M21.678,115.434a.322.322,0,0,0,.322-.322v-1.289a.322.322,0,0,0-.322-.322H.322a.322.322,0,0,0-.322.322v1.289a.322.322,0,0,0,.322.322.322.322,0,1,1,0,.645A.322.322,0,0,0,0,116.4v1.289a.322.322,0,0,0,.322.322,1.611,1.611,0,0,1,0,3.223.322.322,0,0,0-.322.322v1.289a.322.322,0,0,0,.322.322.322.322,0,1,1,0,.645.322.322,0,0,0-.322.322v1.289a.322.322,0,0,0,.322.322H21.678a.322.322,0,0,0,.322-.322v-1.289a.322.322,0,0,0-.322-.322.322.322,0,1,1,0-.645.322.322,0,0,0,.322-.322v-1.289a.322.322,0,0,0-.322-.322,1.611,1.611,0,0,1,0-3.223.322.322,0,0,0,.322-.322V116.4a.322.322,0,0,0-.322-.322.322.322,0,1,1,0-.645Zm-.322-.589a.967.967,0,0,0,0,1.823v.723a2.256,2.256,0,0,0,0,4.466v.723a.967.967,0,0,0,0,1.823v.7H.645v-.7a.967.967,0,0,0,0-1.823v-.723a2.256,2.256,0,0,0,0-4.466v-.723a.967.967,0,0,0,0-1.823v-.7H21.355Z"/>
  </g>
</svg>
