<svg xmlns="http://www.w3.org/2000/svg" width="22" height="20.167" viewBox="0 0 22 20.167">
  <g id="feedback" transform="translate(0 -21.333)">
    <g id="Group_27" data-name="Group 27" transform="translate(0 21.333)">
      <g id="Group_26" data-name="Group 26" transform="translate(0 0)">
        <path id="Path_58" data-name="Path 58" d="M107.119,128.905h9.966a.453.453,0,0,0,0-.906h-9.966a.453.453,0,0,0,0,.906Z" transform="translate(-102.029 -123.413)"/>
        <path id="Path_59" data-name="Path 59" d="M112.555,256h-5.436a.453.453,0,0,0,0,.906h5.436a.453.453,0,0,0,0-.906Z" transform="translate(-102.061 -245.911)"/>
        <path id="Path_60" data-name="Path 60" d="M20.245,23.166c-.027,0-.052.007-.079.008v-.008a1.835,1.835,0,0,0-1.833-1.833H1.833A1.835,1.835,0,0,0,0,23.166V41.041a.459.459,0,0,0,.283.423.453.453,0,0,0,.175.035.458.458,0,0,0,.324-.134l4.449-4.449h13.1a1.835,1.835,0,0,0,1.833-1.833v-7.6l1.319-1.319h0a1.754,1.754,0,0,0-1.241-2.995Zm-1,11.917a.918.918,0,0,1-.917.917H5.042a.458.458,0,0,0-.324.134l-3.8,3.8V23.166a.918.918,0,0,1,.917-.917h16.5a.918.918,0,0,1,.917.917v.313a1.724,1.724,0,0,0-.245.2l-4.987,4.986H5.042a.458.458,0,1,0,0,.917h8.241l-.44,2.2a.458.458,0,0,0,.449.548.468.468,0,0,0,.09-.009l2.291-.458a.455.455,0,0,0,.235-.125L19.25,28.4Zm-3.893-4.089-1.481.3.3-1.482,4.161-4.161,1.185,1.185Zm5.481-5.481-.671.671L18.981,25l.672-.672a.838.838,0,0,1,1.185,1.186Z" transform="translate(0 -21.333)"/>
      </g>
    </g>
  </g>
</svg>
