<svg xmlns="http://www.w3.org/2000/svg" width="22" height="33.379" viewBox="0 0 22 33.379">
  <path id="Path_97" data-name="Path 97" d="M44.313,139.4v-3.553c0-.019-.026-.038-.028-.057a4.559,4.559,0,0,0-2.495-3.666.809.809,0,0,0-.08-.032l-3.665-1.321a4.032,4.032,0,0,0,2.463-2.595,4.037,4.037,0,0,0,4.234-4.035,4.321,4.321,0,0,0-1.593-3.106,2.5,2.5,0,0,0,.412-1.375,2.528,2.528,0,0,0-.072-.6,2.074,2.074,0,0,0-1.617-1.535l.137-1.992a8.286,8.286,0,1,0-16.533,0l.137,2a2.065,2.065,0,0,0-1.623,1.528,2.527,2.527,0,0,0-.072.6,2.5,2.5,0,0,0,.367,1.3,4.042,4.042,0,0,0,1.685,7.137,4.094,4.094,0,0,0,1.01.077,4.034,4.034,0,0,0,2.476,2.6L25.82,132.1a.7.7,0,0,0-.074.032,4.563,4.563,0,0,0-2.5,3.666c0,.019-.018.038-.018.057V139.4a.687.687,0,0,0,.718.655H43.575A.706.706,0,0,0,44.313,139.4Zm-5.271-3.553v2.833H28.387v-2.833c0-.019.023-.038.022-.057a4.525,4.525,0,0,0-1.22-2.734l3.92-1.407,1.976,2.634v2.285a.687.687,0,1,0,1.375,0v-2.285l1.948-2.645,3.924,1.419a4.572,4.572,0,0,0-1.259,2.734C39.07,135.814,39.042,135.833,39.042,135.852Zm-5.268-6.726a8.161,8.161,0,0,0,1.716-.187v1.666l-1.719,2.3-1.719-2.3v-1.668a8.151,8.151,0,0,0,1.721.188Zm8.162-2.618a2.641,2.641,0,0,1-.7.248,2.7,2.7,0,0,1-1.119-.009.687.687,0,0,0-.831.583,2.667,2.667,0,0,1-1.746,2.164,2.355,2.355,0,0,1-.338.1,2.526,2.526,0,0,1-.343.046V128.5a8.84,8.84,0,0,0,2.379-1.594,7.81,7.81,0,0,0,2.333-4.779,2.452,2.452,0,0,0,.522-.177,3.1,3.1,0,0,1,1.271,2.2,2.662,2.662,0,0,1-1.434,2.363ZM28.692,110.252a6.911,6.911,0,0,1,11.947,5.191l-.138,2a4.151,4.151,0,0,1-2.847-1.508,5.9,5.9,0,0,1-.709-4.275.687.687,0,0,0-1.2-.591l-1.929,2.35-.007.009a5.454,5.454,0,0,1-4.3,2.076,4.176,4.176,0,0,0-2.595.909l-.067-.97A6.843,6.843,0,0,1,28.692,110.252Zm-3.364,9.14a.687.687,0,0,1,.694-.519.79.79,0,0,1,.144,0,.688.688,0,0,0,.128-.006h.054s0,.018,0,.018,0,.009.007.009a.7.7,0,0,0,.079,0c.009,0,.017,0,.026,0s.043-.007.064-.013l.021-.005a.667.667,0,0,0,.081-.029l.012-.006a.69.69,0,0,0,.065-.034l.022-.014a.687.687,0,0,0,.057-.042l.014-.011a.692.692,0,0,0,.055-.052l.007-.008.014-.017a.708.708,0,0,0,.043-.057.162.162,0,0,0,.011-.018.693.693,0,0,0,.044-.08v0a2.791,2.791,0,0,1,2.535-1.618,6.821,6.821,0,0,0,5.369-2.592l.579-.705a5.949,5.949,0,0,0,1.088,3.171,5.793,5.793,0,0,0,4.549,2.135c.007,0,.015-.013.022-.013s.013-.013.019-.013h.052a.688.688,0,0,0,.128,0,.713.713,0,0,1,.838.522,1.194,1.194,0,0,1,.033.278,1.147,1.147,0,0,1-1.141,1.146h-.124a.686.686,0,0,0-.687.663,6.5,6.5,0,0,1-12.984,0,.686.686,0,0,0-.687-.663h-.128a1.144,1.144,0,0,1-1.141-1.143A1.16,1.16,0,0,1,25.327,119.392Zm2.871,7.94a.687.687,0,0,0-.831-.583,2.713,2.713,0,0,1-1.12.009,2.668,2.668,0,0,1-.931-4.84,2.493,2.493,0,0,0,.6.21,7.837,7.837,0,0,0,2.353,4.778,7.469,7.469,0,0,0,2.4,1.593v1.146a2.918,2.918,0,0,1-.363-.045,2.723,2.723,0,0,1-.364-.1,2.666,2.666,0,0,1-1.753-2.167Zm-3.593,8.55a3.286,3.286,0,0,1,1.2-2.2,2.889,2.889,0,0,1,1.2,2.2v2.8H24.606Zm18.332,2.8H40.417v-2.8a3.356,3.356,0,0,1,1.26-2.2,3.355,3.355,0,0,1,1.26,2.2Z" transform="translate(-22.743 -106.681)"/>
</svg>
