<svg xmlns="http://www.w3.org/2000/svg" width="22" height="22" viewBox="0 0 22 22">
  <g id="Layer_1" transform="translate(-2 -2)">
    <g id="Group_11" data-name="Group 11" transform="translate(13.786 12.214)">
      <path id="Path_42" data-name="Path 42" d="M25.274,26.786H18.94A1.943,1.943,0,0,1,17,24.846V16.94A1.943,1.943,0,0,1,18.94,15h6.334a1.943,1.943,0,0,1,1.94,1.94v7.906A1.943,1.943,0,0,1,25.274,26.786ZM18.94,16.571a.369.369,0,0,0-.368.368v7.906a.369.369,0,0,0,.368.369h6.334a.369.369,0,0,0,.369-.369V16.94a.369.369,0,0,0-.369-.368Z" transform="translate(-17 -15)"/>
    </g>
    <g id="Group_12" data-name="Group 12" transform="translate(13.786 2)">
      <path id="Path_43" data-name="Path 43" d="M25.274,10.643H18.94A1.943,1.943,0,0,1,17,8.7V3.94A1.943,1.943,0,0,1,18.94,2h6.334a1.943,1.943,0,0,1,1.94,1.94V8.7A1.943,1.943,0,0,1,25.274,10.643ZM18.94,3.571a.369.369,0,0,0-.368.368V8.7a.369.369,0,0,0,.368.368h6.334a.369.369,0,0,0,.369-.368V3.94a.369.369,0,0,0-.369-.369Z" transform="translate(-17 -2)"/>
    </g>
    <g id="Group_13" data-name="Group 13" transform="translate(2 2)">
      <path id="Path_44" data-name="Path 44" d="M10.274,13.786H3.94A1.943,1.943,0,0,1,2,11.846V3.94A1.943,1.943,0,0,1,3.94,2h6.334a1.943,1.943,0,0,1,1.94,1.94v7.906A1.943,1.943,0,0,1,10.274,13.786ZM3.94,3.571a.369.369,0,0,0-.368.368v7.906a.369.369,0,0,0,.368.369h6.334a.369.369,0,0,0,.369-.369V3.94a.369.369,0,0,0-.369-.368Z" transform="translate(-2 -2)"/>
    </g>
    <g id="Group_14" data-name="Group 14" transform="translate(2 15.357)">
      <path id="Path_45" data-name="Path 45" d="M10.274,27.643H3.94A1.943,1.943,0,0,1,2,25.7V20.94A1.943,1.943,0,0,1,3.94,19h6.334a1.943,1.943,0,0,1,1.94,1.94V25.7A1.943,1.943,0,0,1,10.274,27.643ZM3.94,20.571a.369.369,0,0,0-.368.368V25.7a.369.369,0,0,0,.368.369h6.334a.369.369,0,0,0,.369-.369V20.94a.369.369,0,0,0-.369-.368Z" transform="translate(-2 -19)"/>
    </g>
  </g>
</svg>
