<svg xmlns="http://www.w3.org/2000/svg" width="22" height="22" viewBox="0 0 22 22">
  <g id="hidden" transform="translate(0.001)">
    <path id="Path_2530" data-name="Path 2530" d="M183.168,156.6q-.344-.3-.69-.566l-2.693,2.693a4.371,4.371,0,0,1-5.584,5.584l-2.021,2.021a9.183,9.183,0,0,0,3.489.73,9.531,9.531,0,0,0,4.178-1.039,15.74,15.74,0,0,0,3.322-2.234,20.62,20.62,0,0,0,3.038-3.231.624.624,0,0,0,0-.729A20.623,20.623,0,0,0,183.168,156.6Z" transform="translate(-164.325 -149.106)"/>
    <path id="Path_2531" data-name="Path 2531" d="M245.843,248.965a3.119,3.119,0,0,0,3.09-3.563l-3.531,3.531a3.127,3.127,0,0,0,.441.032Z" transform="translate(-234.792 -234.79)"/>
    <path id="Path_2532" data-name="Path 2532" d="M21.81.19a.644.644,0,0,0-.911,0L15.834,5.253q-.261-.142-.522-.27A9.837,9.837,0,0,0,11,3.91,9.839,9.839,0,0,0,6.686,4.984,16.25,16.25,0,0,0,3.257,7.29,21.292,21.292,0,0,0,.121,10.624a.644.644,0,0,0,0,.753,21.286,21.286,0,0,0,3.136,3.335,18.159,18.159,0,0,0,1.77,1.349L.188,20.9a.645.645,0,0,0,.911.911L21.81,1.1a.644.644,0,0,0,0-.911ZM6.487,11A4.509,4.509,0,0,1,13.7,7.388l-.929.929A3.221,3.221,0,0,0,8.307,12.78l-.929.929A4.488,4.488,0,0,1,6.487,11Z" transform="translate(0)"/>
  </g>
</svg>
