<svg xmlns="http://www.w3.org/2000/svg" width="22" height="23.735" viewBox="0 0 22 23.735">
  <g id="logout" transform="translate(-17.219)">
    <g id="Group_3101" data-name="Group 3101" transform="translate(17.219)">
      <path id="Path_119" data-name="Path 119" d="M27.967,22.375H21.689A3.073,3.073,0,0,1,18.6,19.327V4.407A3.073,3.073,0,0,1,21.689,1.36h6.38a.68.68,0,1,0,0-1.36h-6.38a4.444,4.444,0,0,0-4.47,4.407v14.92a4.444,4.444,0,0,0,4.47,4.407h6.278a.68.68,0,1,0,0-1.36Z" transform="translate(-17.219)"/>
      <path id="Path_120" data-name="Path 120" d="M137.351,140.911l-4.383-4.383a.69.69,0,0,0-.976.976l3.208,3.208H121.209a.69.69,0,1,0,0,1.379H135.2l-3.208,3.208a.692.692,0,0,0,.485,1.18.673.673,0,0,0,.485-.2l4.383-4.383A.689.689,0,0,0,137.351,140.911Z" transform="translate(-115.553 -129.529)"/>
    </g>
  </g>
</svg>
