<svg xmlns="http://www.w3.org/2000/svg" width="22" height="31.429" viewBox="0 0 22 31.429">
  <g id="svgexport-18_12_" data-name="svgexport-18 (12)" transform="translate(-8.282 -2)">
    <path id="Path_126632" data-name="Path 126632" d="M21.235,30.851a.719.719,0,0,0,0-1.436A.719.719,0,0,0,21.235,30.851Zm-6-15.807a6.1,6.1,0,0,0,12,.009,17.2,17.2,0,0,1-8.584-2.39l-2.293,1.924A2,2,0,0,1,15.234,15.044Z" transform="translate(-1.962 -3.098)"/>
    <path id="Path_126633" data-name="Path 126633" d="M9.336,31.551a2.117,2.117,0,0,0,2.082,1.877H27.13a2.117,2.117,0,0,0,2.082-1.877l1.049-8.571a2.142,2.142,0,0,0-2.082-2.409H10.369A2.114,2.114,0,0,0,8.287,22.98Zm9.938-6.694a2.144,2.144,0,0,1,0,4.286A2.144,2.144,0,0,1,19.274,24.857Zm0-5.714a4.208,4.208,0,0,1-3.126-1.393A7.761,7.761,0,0,1,12.51,14.3l-1.094.559a3.56,3.56,0,0,0-1.933,3.194v1.213C9.657,19.022,18.822,19.189,19.274,19.143ZM12.679,10.5a.685.685,0,0,0,.738-.085l3.1-2.534a16.549,16.549,0,0,0,9.05,2.69.709.709,0,0,0,.7-.714V7.83A5.823,5.823,0,0,0,20.559,2h-2.1a5.4,5.4,0,0,0-3.672,1.443,2.851,2.851,0,0,0-2.5,2.843V9.857A.718.718,0,0,0,12.679,10.5Zm16.385,8.764V18.051a3.56,3.56,0,0,0-1.933-3.194L26.037,14.3A7.761,7.761,0,0,1,22.4,17.75a4.208,4.208,0,0,1-3.126,1.393C19.756,19.189,28.862,19.022,29.064,19.264Z" transform="translate(0 0)"/>
  </g>
</svg>
