<svg xmlns="http://www.w3.org/2000/svg" width="22" height="39.621" viewBox="0 0 22 39.621">
  <path id="Path_98" data-name="Path 98" d="M336.4,136.686c-.027-.013-.072-.026-.1-.035l-2.939-1.054v-.983a.751.751,0,0,0-.387-.676.623.623,0,0,0-.062-.032h0l-1.488-.614a8.276,8.276,0,0,0,4.806-6.95,2.679,2.679,0,0,0,1.515-3.083,2.179,2.179,0,0,0-1.215-1.476l.135-1.954a8.685,8.685,0,1,0-17.33,0l.135,1.952a2.177,2.177,0,0,0-1.221,1.478,2.677,2.677,0,0,0,1.517,3.084,8.267,8.267,0,0,0,4.816,6.952l-1.461.6,0,.008c-.025.01-.064.02-.087.033a.78.78,0,0,0-.419.676v.983l-2.907,1.054a.671.671,0,0,0-.076.035,4.8,4.8,0,0,0-2.627,3.862c0,.021-.015.042-.015.064v5.622a.826.826,0,0,0,.8.8h7.538l2.138,2.833a.784.784,0,0,0,1.227,0l2.138-2.838h7.411a.772.772,0,0,0,.735-.8v-5.622c0-.021.015-.043.013-.064A4.771,4.771,0,0,0,336.4,136.686Zm-3.3,3.925v4.89h-2.093l-1.033-5.582a.754.754,0,0,0,.347.076.77.77,0,0,0,.614-.311l1.971-2.63,1.532.552a4.769,4.769,0,0,0-1.346,2.942C333.1,140.569,333.107,140.59,333.107,140.611Zm-10.1,4.89v-4.89c0-.021-.013-.043-.014-.064a4.792,4.792,0,0,0-1.367-2.948l1.514-.548,1.969,2.628a.765.765,0,0,0,1.038.178l.067-.027-1.051,5.671Zm6.4-7.817,2.226-1.484-1.484,1.978Zm.375-2.093-1.729,1.171-1.722-1.166v-1.744a7.674,7.674,0,0,0,1.7.185,7.589,7.589,0,0,0,1.748-.195Zm-3.14,2.093-.741.495-1.484-1.978Zm-3.864-23.333a7.152,7.152,0,0,1,12.363,5.372l-.084,1.223-.621-2.56a.763.763,0,0,0-.04-.12,3.9,3.9,0,0,0-3.4-2.356l-.731-.032a.769.769,0,0,0-.659.322,6.476,6.476,0,0,1-5.964,2.683l-1.229-.132a1.074,1.074,0,0,0-1.185.982l-.189,2.366-.006,0-.164-2.374a7.082,7.082,0,0,1,1.906-5.372Zm-1.49,11.422a.767.767,0,0,0-.635-.755,1.14,1.14,0,0,1-.908-1.393.645.645,0,0,1,.243-.374,1.37,1.37,0,0,0,.272.186c.021.011.043.021.065.03,1.119.448,1.455.5,1.8.287a.785.785,0,0,0,.368-.6l.226-2.825.759.082a8.015,8.015,0,0,0,7.122-2.98l.327.014a2.357,2.357,0,0,1,2.03,1.371l1.154,4.757a.767.767,0,0,0,1.269.38l.63-.588c.021-.02.041-.042.061-.063a.648.648,0,0,1,.187.324,1.141,1.141,0,0,1-.905,1.393.78.78,0,0,0-.633.767,6.718,6.718,0,0,1-13.436-.011Zm-2.754,14.872a3.393,3.393,0,0,1,1.47-2.4,3.394,3.394,0,0,1,1.47,2.4V145.5h-2.94Zm9.555,7.468L326.6,146.13l1.394-7.5.029-.02.177.118,1.374,7.406Zm9.364-2.611h-2.812v-4.856a3.335,3.335,0,0,1,1.406-2.39,2.972,2.972,0,0,1,1.406,2.39Z" transform="translate(-317 -110.545)"/>
</svg>
