<svg xmlns="http://www.w3.org/2000/svg" width="22" height="27.5" viewBox="0 0 22 27.5">
  <g id="svgexport-18_14_" data-name="svgexport-18 (14)" transform="translate(-60)">
    <path id="Path_126636" data-name="Path 126636" d="M71,0A10.784,10.784,0,0,0,60,10.527a10.178,10.178,0,0,0,1.483,5.283,10.551,10.551,0,0,0,.752,1.079L70.522,27.5h.956l8.287-10.611a10.575,10.575,0,0,0,.752-1.079A10.179,10.179,0,0,0,82,10.527,10.784,10.784,0,0,0,71,0Zm0,14.019a3.576,3.576,0,0,1-3.648-3.491,3.651,3.651,0,0,1,7.3,0A3.576,3.576,0,0,1,71,14.019Z" transform="translate(0)"/>
  </g>
</svg>
