<svg xmlns="http://www.w3.org/2000/svg" width="22" height="24.199" viewBox="0 0 22 24.199">
  <g id="Group_442" data-name="Group 442" transform="translate(0 0)">
    <g id="Notification" transform="translate(0 0)">
      <path id="Path_25" data-name="Path 25" d="M23.983,24.607H6.017A2.005,2.005,0,0,1,4.807,21l.908-.676a1.633,1.633,0,0,0,.638-1.046l1.136-6.865a7.608,7.608,0,0,1,15.024.006l1.135,6.86a1.633,1.633,0,0,0,.638,1.046l.908.676a2.005,2.005,0,0,1-1.21,3.612ZM15.005,7.1a6.457,6.457,0,0,0-6.427,5.486L7.436,19.45a2.723,2.723,0,0,1-1.064,1.744l-.908.676a.912.912,0,0,0,.551,1.643H23.983a.912.912,0,0,0,.549-1.642l-.908-.676a2.723,2.723,0,0,1-1.064-1.744l-1.136-6.861a6.458,6.458,0,0,0-6.42-5.5Z" transform="translate(-4.001 -3.764)"/>
      <path id="Path_26" data-name="Path 26" d="M23.913,5.556A.558.558,0,0,1,23.355,5V4.236a1.119,1.119,0,1,0-2.236,0V5A.559.559,0,0,1,20,5v-.76a2.236,2.236,0,0,1,4.473,0V5a.558.558,0,0,1-.559.558Z" transform="translate(-11.237 -2)"/>
      <path id="Path_27" data-name="Path 27" d="M20.913,42.473A3.917,3.917,0,0,1,17,38.558a.559.559,0,0,1,1.119,0,2.8,2.8,0,0,0,5.594,0,.559.559,0,0,1,1.119,0,3.917,3.917,0,0,1-3.913,3.913Z" transform="translate(-9.914 -18.274)"/>
    </g>
  </g>
</svg>
