<svg xmlns="http://www.w3.org/2000/svg" width="22" height="24" viewBox="0 0 22 24">
  <g id="_x31_45_x2C__csv_x2C__file_type_x2C__file_format_x2C__file_extension_x2C__document" transform="translate(-36 -16)">
    <g id="XMLID_1_" transform="translate(36 16)">
      <g id="XMLID_2791_" transform="translate(0 9.428)">
        <path id="XMLID_2710_" d="M53.739,217.055H38.715A2.726,2.726,0,0,1,36,214.325V206.5a.5.5,0,1,1,1,0v7.822a1.722,1.722,0,0,0,1.716,1.725H53.739a.752.752,0,0,0,.75-.754v-6.03a.752.752,0,0,0-.75-.754H40.5a.5.5,0,0,1,0-1H53.739a1.756,1.756,0,0,1,1.749,1.759v6.03A1.756,1.756,0,0,1,53.739,217.055Z" transform="translate(-36 -206)"/>
      </g>
      <g id="XMLID_2789_" transform="translate(0 7.992)">
        <path id="XMLID_2709_" d="M40.522,180.02H38.01a2.01,2.01,0,1,1,0-4.02h2.512a.5.5,0,1,1,0,1H38.01a1,1,0,1,0,0,2.01h2.512a.5.5,0,0,1,0,1.005Z" transform="translate(-36 -176)"/>
      </g>
      <g id="XMLID_2787_" transform="translate(4.02 0)">
        <path id="XMLID_2708_" d="M131.982,40H118a2,2,0,0,1-2-2V36a.5.5,0,1,1,1,0v2a1,1,0,0,0,1,1h13.984a1,1,0,0,0,1-1V20.707L129.278,17H118a1,1,0,0,0-1,1v9.5a.5.5,0,1,1-1,0V18a2,2,0,0,1,2-2h11.487a.5.5,0,0,1,.353.146l4,4a.5.5,0,0,1,.146.354V38A2,2,0,0,1,131.982,40Z" transform="translate(-116 -16)"/>
      </g>
      <g id="XMLID_2785_" transform="translate(16.975 0.502)">
        <path id="XMLID_2707_" d="M380.02,30.522H376.5a.5.5,0,0,1-.5-.5V26.5a.5.5,0,0,1,1.005,0v3.015h3.015a.5.5,0,1,1,0,1Z" transform="translate(-376 -26)"/>
      </g>
      <g id="XMLID_2180_" transform="translate(6.49 3.517)">
        <path id="XMLID_2706_" d="M170.522,87H166.5a.5.5,0,1,1,0-1h4.02a.5.5,0,1,1,0,1Z" transform="translate(-166 -86)"/>
      </g>
      <g id="XMLID_2178_" transform="translate(6.478 5.499)">
        <path id="XMLID_2705_" d="M174.542,127H166.5a.5.5,0,1,1,0-1h8.04a.5.5,0,1,1,0,1Z" transform="translate(-166 -126)"/>
      </g>
      <g id="XMLID_8_" transform="translate(6.478 7.498)">
        <path id="XMLID_2704_" d="M174.542,167H166.5a.5.5,0,1,1,0-1h8.04a.5.5,0,1,1,0,1Z" transform="translate(-166 -166)"/>
      </g>
      <g id="XMLID_6_" transform="translate(4.247 13.482)">
        <path id="XMLID_2703_" d="M123.512,291.025a2.512,2.512,0,1,1,0-5.025.5.5,0,1,1,0,1,1.507,1.507,0,1,0,0,3.015.5.5,0,0,1,0,1.005Z" transform="translate(-121 -286)"/>
      </g>
      <g id="XMLID_4_" transform="translate(12.486 13.482)">
        <path id="XMLID_2702_" d="M288.008,291.022a.5.5,0,0,1-.47-.326l-1.507-4.02a.5.5,0,1,1,.941-.353l1.037,2.765,1.037-2.765a.5.5,0,0,1,.941.353l-1.508,4.02a.5.5,0,0,1-.471.326Z" transform="translate(-285.998 -285.997)"/>
      </g>
      <g id="XMLID_2_" transform="translate(7.992 13.482)">
        <path id="XMLID_2701_" d="M198.01,291.025H196.5a.5.5,0,0,1,0-1.005h1.507a.5.5,0,1,0,0-1h-.5a1.507,1.507,0,1,1,0-3.015h1.507a.5.5,0,1,1,0,1h-1.507a.5.5,0,1,0,0,1.005h.5a1.507,1.507,0,1,1,0,3.015Z" transform="translate(-196 -286)"/>
      </g>
    </g>
  </g>
</svg>
