<svg xmlns="http://www.w3.org/2000/svg" width="22" height="19.873" viewBox="0 0 22 19.873">
  <g id="people" transform="translate(0 -24.753)">
    <g id="Group_680" data-name="Group 680" transform="translate(0 24.753)">
      <path id="Path_76" data-name="Path 76" d="M19.149,31.37a3.844,3.844,0,0,0-.064-5.6.328.328,0,0,0-.444.482,3.192,3.192,0,0,1-3.517,5.238.246.246,0,0,1-.141-.208,3.847,3.847,0,0,0-1.573-2.845.248.248,0,0,1-.1-.23,3.2,3.2,0,0,1,4.329-2.582.327.327,0,1,0,.238-.61,3.852,3.852,0,0,0-5.185,2.9.082.082,0,0,1-.112.06,3.845,3.845,0,0,0-2.877,0,.081.081,0,0,1-.111-.06,3.853,3.853,0,0,0-3.786-3.163h0a3.848,3.848,0,0,0-3.639,2.6.328.328,0,0,0,.62.213,3.193,3.193,0,0,1,6.188.644.247.247,0,0,1-.1.229A3.848,3.848,0,0,0,7.3,31.284a.247.247,0,0,1-.14.207,3.192,3.192,0,0,1-4.547-2.757.328.328,0,0,0-.655.027,3.826,3.826,0,0,0,1.124,2.561A3.707,3.707,0,0,0,0,34.973v5.416a1.294,1.294,0,0,0,1.294,1.294H5.336v1.649A1.294,1.294,0,0,0,6.63,44.626H15.4a1.3,1.3,0,0,0,1.264-1.294V41.683h4.042A1.294,1.294,0,0,0,22,40.388V34.973A3.709,3.709,0,0,0,19.149,31.37Zm-9.5-2.646a3.2,3.2,0,0,1,4.672,2.548h0a3.152,3.152,0,0,1-.011.655h0a3.192,3.192,0,0,1-1.42,2.287h0a3.184,3.184,0,0,1-2.208.489v0s0,0,0,0a3.193,3.193,0,0,1-1.031-5.98Zm5.725,15.247H6.63a.639.639,0,0,1-.639-.639V37.916a3.016,3.016,0,0,1,.64-1.868.328.328,0,0,0-.517-.4,3.667,3.667,0,0,0-.778,2.271v3.112H1.294a.639.639,0,0,1-.639-.639V34.973A3.046,3.046,0,0,1,3.7,31.926h.165a3.851,3.851,0,0,0,3.205.31.247.247,0,0,1,.323.179,3.839,3.839,0,0,0,.758,1.549.247.247,0,0,1-.128.391,3.677,3.677,0,0,0-.834.352.328.328,0,1,0,.327.568,3.046,3.046,0,0,1,1.629-.405.248.248,0,0,1,.118.032,3.841,3.841,0,0,0,3.747.005.247.247,0,0,1,.136-.033,3.051,3.051,0,0,1,2.862,3.041c0,1.093,0,4.323,0,5.416A.643.643,0,0,1,15.376,43.971Zm5.969-3.582a.64.64,0,0,1-.639.639H16.664V37.916a3.708,3.708,0,0,0-2.852-3.6,3.839,3.839,0,0,0,1.133-2.182,3.84,3.84,0,0,0,3.465-.2,3.05,3.05,0,0,1,2.935,3.044Z" transform="translate(0 -24.753)"/>
    </g>
  </g>
</svg>
