<svg xmlns="http://www.w3.org/2000/svg" width="22" height="19.529" viewBox="0 0 22 19.529">
  <path id="photo" d="M19.441,43.467a.344.344,0,0,1-.487.486l-.873-.873v2.762a.344.344,0,1,1-.688,0V43.08l-.873.873a.344.344,0,0,1-.486-.486l1.459-1.46a.344.344,0,0,1,.487,0Zm1.846,1.01A3.574,3.574,0,0,0,18.169,40.5a3.663,3.663,0,0,0-.438-.027,3.575,3.575,0,1,0,3.556,4.006ZM2.7,45.891H13.895a4.261,4.261,0,0,1,4.79-6V37.184L16.422,34.92l-4.7,3.385,1.4.981a.344.344,0,1,1-.395.563L5.675,34.9.688,39.121v4.752A2.019,2.019,0,0,0,2.7,45.891Zm0-16.424H16.669a2.019,2.019,0,0,1,2.017,2.017v4.728L16.7,34.227a.344.344,0,0,0-.444-.036l-5.127,3.7-5.276-3.7a.344.344,0,0,0-.419.019L.688,38.221V31.483A2.019,2.019,0,0,1,2.7,29.466ZM21.093,41.418a4.234,4.234,0,0,0-1.72-1.306V31.483a2.707,2.707,0,0,0-2.7-2.7H2.7a2.707,2.707,0,0,0-2.7,2.7V43.874a2.708,2.708,0,0,0,2.7,2.7H14.31c.024.032.048.064.073.1a4.262,4.262,0,1,0,6.709-5.256ZM10.839,31.909a1.576,1.576,0,1,1-1.576,1.576,1.576,1.576,0,0,1,1.576-1.576Zm0,3.839A2.263,2.263,0,1,1,13.1,33.485,2.263,2.263,0,0,1,10.839,35.748Z" transform="translate(0 -28.779)" fill-rule="evenodd"/>
</svg>
