<svg xmlns="http://www.w3.org/2000/svg" width="22" height="18.447" viewBox="0 0 22 18.447">
  <path id="printer" d="M19.974,47.072H17.451V41.683a.344.344,0,0,0-.344-.344H4.893a.344.344,0,0,0-.344.344v5.389H2.026A2.029,2.029,0,0,0,0,49.1v5.8A2.029,2.029,0,0,0,2.026,56.92H4.549v2.523a.344.344,0,0,0,.344.344H17.107a.344.344,0,0,0,.344-.344V56.92h2.523A2.029,2.029,0,0,0,22,54.894V49.1A2.029,2.029,0,0,0,19.974,47.072ZM5.237,42.027H16.763v5.045H5.237ZM16.763,59.1H5.237V54.054H16.763Zm4.549-4.205a1.34,1.34,0,0,1-1.339,1.339H17.451V53.71a.344.344,0,0,0-.344-.344H4.893a.344.344,0,0,0-.344.344v2.523H2.026A1.34,1.34,0,0,1,.688,54.894V49.1a1.34,1.34,0,0,1,1.339-1.339H19.974A1.34,1.34,0,0,1,21.313,49.1Zm-14.8.64a.344.344,0,0,1,.344-.344h8.288a.344.344,0,1,1,0,.688H6.856A.344.344,0,0,1,6.512,55.534Zm0,2.085a.344.344,0,0,1,.344-.344h8.288a.344.344,0,0,1,0,.688H6.856A.344.344,0,0,1,6.512,57.619Z" transform="translate(0 -41.339)"/>
</svg>
