<svg xmlns="http://www.w3.org/2000/svg" width="22" height="19.557" viewBox="0 0 22 19.557">
  <g id="promotion" transform="translate(0 -28.432)">
    <g id="Group_3114" data-name="Group 3114" transform="translate(12.535 35.609)">
      <g id="Group_3113" data-name="Group 3113">
        <path id="Path_124" data-name="Path 124" d="M292.165,195.469a.427.427,0,0,0-.427.427v.006a.427.427,0,0,0,.855,0V195.9A.427.427,0,0,0,292.165,195.469Z" transform="translate(-291.738 -195.469)"/>
      </g>
    </g>
    <g id="Group_3116" data-name="Group 3116" transform="translate(0 33.547)">
      <g id="Group_3115" data-name="Group 3115">
        <path id="Path_125" data-name="Path 125" d="M15.438,151.688v-3.508a.427.427,0,0,0-.553-.409L5.3,150.707H2.855a2.855,2.855,0,0,0-.251,5.7l.941,4.51a1.608,1.608,0,1,0,3.148-.657l-.206-.988a2.62,2.62,0,0,0,1.783-1.945l6.616,2.026a.427.427,0,0,0,.553-.409v-3.508a1.922,1.922,0,0,0,0-3.748ZM2.855,155.563a2,2,0,1,1,0-4H4.938v4H2.855Zm2.847,5.5a.753.753,0,0,1-1.321-.321l-.9-4.324H5.018l.546,2.618h0l.291,1.4A.75.75,0,0,1,5.7,161.062Zm.608-2.634-.379-1.819,1.517.465A1.764,1.764,0,0,1,6.31,158.429Zm8.273-.063h0L13.4,158v-6.058a.427.427,0,1,0-.855,0v5.8l-4.454-1.364a.423.423,0,0,0-.134-.041l-2.165-.663v-4.223l8.791-2.692v9.608Zm.855-3.826v-1.956a1.067,1.067,0,0,1,0,1.956Z" transform="translate(0 -147.753)"/>
      </g>
    </g>
    <g id="Group_3118" data-name="Group 3118" transform="translate(17.722 38.936)">
      <g id="Group_3117" data-name="Group 3117">
        <path id="Path_126" data-name="Path 126" d="M414.858,272.894h-1.906a.427.427,0,1,0,0,.855h1.906a.427.427,0,0,0,0-.855Z" transform="translate(-412.525 -272.894)"/>
      </g>
    </g>
    <g id="Group_3120" data-name="Group 3120" transform="translate(17.105 35.466)">
      <g id="Group_3119" data-name="Group 3119" transform="translate(0 0)">
        <path id="Path_127" data-name="Path 127" d="M399.9,192.327a.427.427,0,0,0-.6-.093l-.959.7a.427.427,0,1,0,.5.691l.959-.7A.427.427,0,0,0,399.9,192.327Z" transform="translate(-398.172 -192.151)"/>
      </g>
    </g>
    <g id="Group_3122" data-name="Group 3122" transform="translate(17.111 41.71)">
      <g id="Group_3121" data-name="Group 3121">
        <path id="Path_128" data-name="Path 128" d="M399.941,338.246l-.953-.7a.427.427,0,0,0-.5.691l.953.7a.427.427,0,0,0,.5-.691Z" transform="translate(-398.308 -337.469)"/>
      </g>
    </g>
    <g id="Group_3124" data-name="Group 3124" transform="translate(10.154 29.971)">
      <g id="Group_3123" data-name="Group 3123" transform="translate(0 0)">
        <path id="Path_129" data-name="Path 129" d="M245.856,64.207h-8.871a.427.427,0,0,0,0,.855h8.871a.427.427,0,1,0,0-.855Z" transform="translate(-236.558 -64.207)"/>
      </g>
    </g>
    <g id="Group_3126" data-name="Group 3126" transform="translate(5.533 29.971)">
      <g id="Group_3125" data-name="Group 3125" transform="translate(0 0)">
        <path id="Path_130" data-name="Path 130" d="M129.5,64.332a.427.427,0,1,0,.125.3A.431.431,0,0,0,129.5,64.332Z" transform="translate(-128.77 -64.207)"/>
      </g>
    </g>
    <g id="Group_3128" data-name="Group 3128" transform="translate(3.964 29.971)">
      <g id="Group_3127" data-name="Group 3127" transform="translate(0 0)">
        <path id="Path_131" data-name="Path 131" d="M92.98,64.332a.427.427,0,1,0,.125.3A.431.431,0,0,0,92.98,64.332Z" transform="translate(-92.25 -64.207)"/>
      </g>
    </g>
    <g id="Group_3130" data-name="Group 3130" transform="translate(7.102 29.971)">
      <g id="Group_3129" data-name="Group 3129" transform="translate(0 0)">
        <path id="Path_132" data-name="Path 132" d="M166.02,64.332a.427.427,0,1,0,.125.3A.431.431,0,0,0,166.02,64.332Z" transform="translate(-165.29 -64.207)"/>
      </g>
    </g>
    <g id="Group_3132" data-name="Group 3132" transform="translate(1.847 28.432)">
      <g id="Group_3131" data-name="Group 3131" transform="translate(0 0)">
        <path id="Path_133" data-name="Path 133" d="M61.312,28.432H44.745a1.8,1.8,0,0,0-1.793,1.793v5.849a.427.427,0,0,0,.854,0V34.412h2.661a.427.427,0,1,0,0-.854H43.806v-1.2H62.251v11.1a.94.94,0,0,1-.939.939h-3.4a.427.427,0,1,0,0,.854h3.4A1.8,1.8,0,0,0,63.1,43.46V30.225A1.8,1.8,0,0,0,61.312,28.432Zm.939,3.074H43.806V30.225a.94.94,0,0,1,.939-.939H61.312a.94.94,0,0,1,.939.939Z" transform="translate(-42.952 -28.432)"/>
      </g>
    </g>
    <g id="Group_3134" data-name="Group 3134" transform="translate(6.318 33.559)">
      <g id="Group_3133" data-name="Group 3133">
        <path id="Path_134" data-name="Path 134" d="M147.775,147.875a.427.427,0,1,0,.125.3A.43.43,0,0,0,147.775,147.875Z" transform="translate(-147.046 -147.75)"/>
      </g>
    </g>
  </g>
</svg>
