<svg xmlns="http://www.w3.org/2000/svg" width="22" height="21.963" viewBox="0 0 22 21.963">
  <path id="refresh" d="M8.944,4.507a11.122,11.122,0,0,1,6.987-1.4l-.156,1.211.156-1.211a11.122,11.122,0,0,1,9.593,9.5,1.222,1.222,0,0,1-2.421.336,8.677,8.677,0,0,0-2.489-4.971h0A8.677,8.677,0,0,0,10.166,6.624h0A8.678,8.678,0,0,0,7.436,9.108H9.646a1.222,1.222,0,0,1,0,2.444H4.758a1.222,1.222,0,0,1-1.222-1.222V5.442a1.222,1.222,0,0,1,2.444,0V7a11.121,11.121,0,0,1,2.964-2.49Zm-4.354,9.5a1.222,1.222,0,0,1,1.379,1.042,8.678,8.678,0,0,0,7.484,7.412h0a8.678,8.678,0,0,0,8.182-3.577H19.424a1.222,1.222,0,1,1,0-2.444h4.889a1.222,1.222,0,0,1,1.222,1.222v4.889a1.222,1.222,0,1,1-2.444,0V21A11.122,11.122,0,0,1,3.547,15.388a1.222,1.222,0,0,1,1.042-1.379Z" transform="translate(-3.535 -3.016)" fill-rule="evenodd"/>
</svg>
