<svg xmlns="http://www.w3.org/2000/svg" width="22" height="21.179" viewBox="0 0 22 21.179">
  <path id="snapchat" d="M21.559,23.161c-3.349-1.822-4.137-3.645-4.334-4.433L19.54,17.6a.925.925,0,0,0-.788-1.675l-1.527.739V12.572c0-2.857-2.758-5.172-6.157-5.172S4.813,9.764,4.813,12.621v4.088L3.286,15.97a.879.879,0,0,0-1.231.443A.879.879,0,0,0,2.5,17.645l2.315,1.133c-.2.837-.985,2.61-4.285,4.433a.893.893,0,0,0-.443.985.942.942,0,0,0,.788.739c.837.1,3.2.69,3.4,2.019a.889.889,0,0,0,.493.69.846.846,0,0,0,.837,0,2.777,2.777,0,0,1,2.906.2,5.794,5.794,0,0,0,2.561.739,5.605,5.605,0,0,0,2.561-.739,2.787,2.787,0,0,1,2.906-.2.846.846,0,0,0,.837,0,1.018,1.018,0,0,0,.493-.69c.2-1.33,2.561-1.921,3.4-2.019a.889.889,0,0,0,.788-.739,1.033,1.033,0,0,0-.493-1.034Zm-5.221,2.463a4.81,4.81,0,0,0-3.546.542,4.1,4.1,0,0,1-1.773.542,3.913,3.913,0,0,1-1.773-.542,5.356,5.356,0,0,0-2.463-.69,4.393,4.393,0,0,0-1.084.148,4.817,4.817,0,0,0-2.463-1.97c3.5-2.561,3.546-4.975,3.5-5.467V12.621c0-1.822,1.921-3.349,4.334-3.349S15.4,10.749,15.4,12.621v5.516c-.049.542,0,2.955,3.5,5.467a4.755,4.755,0,0,0-2.561,2.019Z" transform="translate(-0.059 -7.4)"/>
</svg>
