<svg xmlns="http://www.w3.org/2000/svg" width="22" height="25.316" viewBox="0 0 22 25.316">
  <path id="tiktok" d="M14.525,1.025C15.907,1,17.279,1.015,18.65,1a6.554,6.554,0,0,0,1.848,4.4l0,0a7.4,7.4,0,0,0,4.45,1.887l.024,0v4.252a11.251,11.251,0,0,1-4.5-1.053l.069.029a12.989,12.989,0,0,1-1.754-1.01l.044.029c-.01,3.081.01,6.162-.021,9.231a8.031,8.031,0,0,1-1.441,4.183l.017-.026a7.864,7.864,0,0,1-6.223,3.386h-.012c-.1.005-.226.008-.35.008A7.659,7.659,0,0,1,6.81,25.207l.034.019A7.974,7.974,0,0,1,3,19.237l0-.035c-.021-.528-.031-1.055-.01-1.572a7.951,7.951,0,0,1,7.9-7.156,8.038,8.038,0,0,1,1.354.115l-.047-.007c.021,1.561-.042,3.123-.042,4.684a3.556,3.556,0,0,0-1.2-.2,3.621,3.621,0,0,0-3.415,2.415l-.008.025a4.1,4.1,0,0,0-.177,1.2,4.326,4.326,0,0,0,.031.515l0-.02a3.6,3.6,0,0,0,3.547,3.031c.052,0,.1,0,.153,0h-.008a3.544,3.544,0,0,0,2.914-1.683l.008-.015a2.413,2.413,0,0,0,.431-1.107v-.012c.106-1.889.063-3.766.073-5.655.01-4.252-.01-8.493.021-12.734Z" transform="translate(-2.971 -1.004)"/>
</svg>
