<svg xmlns="http://www.w3.org/2000/svg" width="22" height="32.402" viewBox="0 0 22 32.402">
  <g id="verification" transform="translate(-13 -4.016)">
    <path id="Path_15918" data-name="Path 15918" d="M28.632,6.313h-1.8a2.9,2.9,0,0,0-5.673,0h-1.8a1.159,1.159,0,0,0-1.158,1.158V8.05H15.895A2.9,2.9,0,0,0,13,10.945V33.524a2.9,2.9,0,0,0,2.895,2.895H32.105A2.9,2.9,0,0,0,35,33.524V10.945A2.9,2.9,0,0,0,32.105,8.05H29.789V7.471a1.159,1.159,0,0,0-1.158-1.158ZM19.368,7.471h2.316a.579.579,0,0,0,.579-.579,1.737,1.737,0,0,1,3.474,0,.579.579,0,0,0,.579.579h2.316V9.787H19.368ZM32.105,9.208a1.739,1.739,0,0,1,1.737,1.737V33.524a1.739,1.739,0,0,1-1.737,1.737H15.895a1.739,1.739,0,0,1-1.737-1.737V10.945a1.739,1.739,0,0,1,1.737-1.737h2.316v.579a1.159,1.159,0,0,0,1.158,1.158h9.263a1.159,1.159,0,0,0,1.158-1.158V9.208Z" transform="translate(0 0)"/>
    <path id="Path_15919" data-name="Path 15919" d="M22.692,23.153l-1.934,1.934L20,24.327a.587.587,0,0,0-.83.83l1.174,1.174a.587.587,0,0,0,.83,0l2.349-2.349A.587.587,0,0,0,22.692,23.153Z" transform="translate(-2.536 -8.002)"/>
    <path id="Path_15920" data-name="Path 15920" d="M31,23.571a.587.587,0,0,0,.587.587h7.046a.587.587,0,1,0,0-1.174H31.587A.587.587,0,0,0,31,23.571Z" transform="translate(-7.665 -7.992)"/>
    <path id="Path_15921" data-name="Path 15921" d="M31.593,28.158h4.7a.587.587,0,0,0,0-1.174h-4.7A.587.587,0,0,0,31.593,28.158Z" transform="translate(-7.638 -9.678)"/>
    <path id="Path_15922" data-name="Path 15922" d="M22.692,34.153l-1.934,1.934L20,35.327a.587.587,0,0,0-.83.83l1.174,1.174a.587.587,0,0,0,.83,0l2.349-2.349A.587.587,0,0,0,22.692,34.153Z" transform="translate(-2.536 -12.644)"/>
    <path id="Path_15923" data-name="Path 15923" d="M38.633,33.984H31.587a.587.587,0,1,0,0,1.174h7.046A.587.587,0,0,0,38.633,33.984Z" transform="translate(-7.665 -12.627)"/>
    <path id="Path_15924" data-name="Path 15924" d="M31.593,39.158h4.7a.587.587,0,0,0,0-1.174h-4.7A.587.587,0,0,0,31.593,39.158Z" transform="translate(-7.638 -14.312)"/>
    <path id="Path_15925" data-name="Path 15925" d="M22.692,45.153l-1.934,1.934L20,46.327a.587.587,0,0,0-.83.83l1.174,1.174a.587.587,0,0,0,.83,0l2.349-2.349A.587.587,0,0,0,22.692,45.153Z" transform="translate(-2.536 -17.287)"/>
    <path id="Path_15926" data-name="Path 15926" d="M38.633,44.984H31.587a.587.587,0,1,0,0,1.174h7.046A.587.587,0,0,0,38.633,44.984Z" transform="translate(-7.665 -17.262)"/>
    <path id="Path_15927" data-name="Path 15927" d="M36.29,48.984h-4.7a.587.587,0,0,0,0,1.174h4.7A.587.587,0,0,0,36.29,48.984Z" transform="translate(-7.638 -19.024)"/>
  </g>
</svg>
