<svg xmlns="http://www.w3.org/2000/svg" width="22" height="14.225" viewBox="0 0 22 14.225">
  <g id="view" transform="translate(-0.002)">
    <circle id="Ellipse_206" data-name="Ellipse 206" cx="3.214" cy="3.214" r="3.214" transform="translate(7.789 3.901)"/>
    <path id="Path_2529" data-name="Path 2529" d="M21.667,98.041c-2.6-3.147-6.545-6.175-10.665-6.175S2.94,94.9.338,98.041a1.476,1.476,0,0,0,0,1.876A22.051,22.051,0,0,0,4.2,103.568c4.613,3.359,8.99,3.366,13.613,0a22.051,22.051,0,0,0,3.858-3.655,1.476,1.476,0,0,0,0-1.872ZM11,94.237A4.744,4.744,0,1,1,6.258,98.98,4.744,4.744,0,0,1,11,94.237Z" transform="translate(0 -91.866)"/>
  </g>
</svg>
