<svg id="web" xmlns="http://www.w3.org/2000/svg" width="22" height="22" viewBox="0 0 22 22">
  <path id="Path_13453" data-name="Path 13453" d="M18.724,5.656V5.631h-.018a9.282,9.282,0,0,0-14.412,0H4.277v.025a9.266,9.266,0,0,0,0,11.687v.025h.018a9.282,9.282,0,0,0,14.412,0h.019v-.025a9.266,9.266,0,0,0,0-11.687Zm-6.773-.025V3.168a4.093,4.093,0,0,1,2.293,2.463Zm2.65.9a15.193,15.193,0,0,1,.77,4.515h-3.42V6.534ZM11.049,3.168V5.631H8.755a4.093,4.093,0,0,1,2.293-2.463Zm0,3.366v4.515H7.628A15.194,15.194,0,0,1,8.4,6.534ZM6.726,11.049h-3.6A8.338,8.338,0,0,1,4.745,6.534H7.439a16.209,16.209,0,0,0-.713,4.515Zm0,.9a16.209,16.209,0,0,0,.712,4.515H4.745a8.338,8.338,0,0,1-1.618-4.515Zm.9,0h3.419v4.515H8.4a15.194,15.194,0,0,1-.77-4.515Zm3.419,5.418v2.463a4.093,4.093,0,0,1-2.293-2.463Zm.9,2.463V17.369h2.293a4.093,4.093,0,0,1-2.293,2.463Zm0-3.366V11.951h3.42a15.194,15.194,0,0,1-.77,4.515Zm4.322-4.515h3.6a8.338,8.338,0,0,1-1.618,4.515H15.561a16.209,16.209,0,0,0,.713-4.515Zm0-.9a16.209,16.209,0,0,0-.712-4.515h2.694a8.338,8.338,0,0,1,1.618,4.515Zm1.221-5.418H15.236a7.7,7.7,0,0,0-1.3-2.165,8.4,8.4,0,0,1,3.559,2.165ZM9.065,3.466a7.7,7.7,0,0,0-1.3,2.165H5.5A8.4,8.4,0,0,1,9.064,3.466Zm-3.559,13.9H7.764a7.7,7.7,0,0,0,1.3,2.165,8.4,8.4,0,0,1-3.559-2.165Zm8.43,2.165a7.7,7.7,0,0,0,1.3-2.165h2.259A8.4,8.4,0,0,1,13.935,19.534Z" transform="translate(0)"/>
  <path id="Path_13454" data-name="Path 13454" d="M0,0H22V22H0Z" fill="none"/>
</svg>
