<svg xmlns="http://www.w3.org/2000/svg" width="22" height="18.7" viewBox="0 0 22 18.7">
  <g id="svgexport-18_13_" data-name="svgexport-18 (13)" transform="translate(0 -2)">
    <path id="Path_126634" data-name="Path 126634" d="M13.75,6.207a.926.926,0,0,1-.917-.935V3.87H9.167v1.4a.917.917,0,1,1-1.833,0V3.87A1.854,1.854,0,0,1,9.167,2h3.667a1.854,1.854,0,0,1,1.833,1.87v1.4A.926.926,0,0,1,13.75,6.207Zm-2.1,8.3a1.971,1.971,0,0,1-1.357-.019L0,10.995v7.134A2.545,2.545,0,0,0,2.521,20.7H19.479A2.545,2.545,0,0,0,22,18.129V10.995Z" transform="translate(0 0)"/>
    <path id="Path_126635" data-name="Path 126635" d="M22,7.521v2.1L11.22,13.213a.678.678,0,0,1-.44,0L0,9.62v-2.1A2.519,2.519,0,0,1,2.521,5H19.479A2.519,2.519,0,0,1,22,7.521Z" transform="translate(0 -0.15)"/>
  </g>
</svg>
