<svg xmlns="http://www.w3.org/2000/svg" width="22" height="20.625" viewBox="0 0 22 20.625">
  <g id="date-solid" transform="translate(-2 -2)">
    <path id="Path_126669" data-name="Path 126669" d="M22.8,6h-2.75V8.129a1.513,1.513,0,1,1-3.025,0V6H9.012V8.129a1.513,1.513,0,1,1-3.025,0V6H3.237a1.2,1.2,0,0,0-.882.372A1.285,1.285,0,0,0,2,7.285V23.17a1.246,1.246,0,0,0,1.2,1.285H22.8A1.246,1.246,0,0,0,24,23.17V7.285A1.246,1.246,0,0,0,22.8,6ZM7.5,20.2H6.125v-1.42H7.5Zm0-3.549H6.125v-1.42H7.5Zm0-3.549H6.125v-1.42H7.5Zm4.125,7.1H10.25v-1.42h1.375Zm0-3.549H10.25v-1.42h1.375Zm0-3.549H10.25v-1.42h1.375Zm4.125,7.1H14.375v-1.42H15.75Zm0-3.549H14.375v-1.42H15.75Zm0-3.549H14.375v-1.42H15.75Zm4.125,7.1H18.5v-1.42h1.375Zm0-3.549H18.5v-1.42h1.375Zm0-3.549H18.5v-1.42h1.375Z" transform="translate(0 -1.83)"/>
    <path id="Path_126670" data-name="Path 126670" d="M9.542,6.34a.542.542,0,0,0,.542-.542V2.542A.542.542,0,0,0,9,2.542V5.8A.542.542,0,0,0,9.542,6.34Z" transform="translate(-2.12)"/>
    <path id="Path_126671" data-name="Path 126671" d="M25.542,6.34a.542.542,0,0,0,.542-.542V2.542a.542.542,0,1,0-1.085,0V5.8A.542.542,0,0,0,25.542,6.34Z" transform="translate(-6.965)"/>
  </g>
</svg>
