<svg xmlns="http://www.w3.org/2000/svg" width="22" height="23.158" viewBox="0 0 22 23.158">
  <path id="svgexport-17" d="M22.65,21.093l-5.423-5.732A9.412,9.412,0,0,0,19.385,9.35,9.287,9.287,0,0,0,10.184,0a9.287,9.287,0,0,0-9.2,9.35,9.287,9.287,0,0,0,9.2,9.35,9,9,0,0,0,5.271-1.692l5.465,5.776a1.187,1.187,0,0,0,1.7.034A1.235,1.235,0,0,0,22.65,21.093ZM10.184,2.439a6.864,6.864,0,0,1,6.8,6.911,6.864,6.864,0,0,1-6.8,6.911,6.864,6.864,0,0,1-6.8-6.911A6.864,6.864,0,0,1,10.184,2.439Z" transform="translate(-0.984)"/>
</svg>
