<svg id="svgexport-18_6_" data-name="svgexport-18 (6)" xmlns="http://www.w3.org/2000/svg" width="22" height="24.444" viewBox="0 0 22 24.444">
  <path id="Path_126620" data-name="Path 126620" d="M3.25,5.8V5.514A4.508,4.508,0,0,1,7.964,1.25H20.536A4.508,4.508,0,0,1,25.25,5.514V5.8Zm22,1.705V21.431a4.508,4.508,0,0,1-4.714,4.264H7.964A4.508,4.508,0,0,1,3.25,21.431V7.5ZM20.221,20.294a.908.908,0,0,0-.943-.853H14.25a.857.857,0,1,0,0,1.705h5.029A.908.908,0,0,0,20.221,20.294Zm0-4.548a.908.908,0,0,0-.943-.853H9.221a.857.857,0,1,0,0,1.705H19.279A.908.908,0,0,0,20.221,15.746Zm0-4.548a.908.908,0,0,0-.943-.853H9.221a.857.857,0,1,0,0,1.705H19.279A.908.908,0,0,0,20.221,11.2Z" transform="translate(-3.25 -1.25)"/>
</svg>
