<svg id="svgexport-18_4_" data-name="svgexport-18 (4)" xmlns="http://www.w3.org/2000/svg" width="22" height="24.933" viewBox="0 0 22 24.933">
  <path id="Path_126617" data-name="Path 126617" d="M35.166,12.947a6.474,6.474,0,1,0-6.381-6.474A6.445,6.445,0,0,0,35.166,12.947ZM46.118,18.12a6.063,6.063,0,0,0-.641-1.187,7.92,7.92,0,0,0-5.49-3.505,1.162,1.162,0,0,0-.808.2,6.724,6.724,0,0,1-8.025,0,1.034,1.034,0,0,0-.808-.2,7.863,7.863,0,0,0-5.49,3.505,6.991,6.991,0,0,0-.641,1.187.609.609,0,0,0,.028.537A11.29,11.29,0,0,0,25,19.788a10.7,10.7,0,0,0,1.282,1.47,16.778,16.778,0,0,0,1.282,1.131,12.562,12.562,0,0,0,15.159,0A12.3,12.3,0,0,0,44,21.258a13,13,0,0,0,1.282-1.47,9.921,9.921,0,0,0,.752-1.131A.488.488,0,0,0,46.118,18.12Z" transform="translate(-24.165)"/>
</svg>
