<svg xmlns="http://www.w3.org/2000/svg" width="22" height="18.7" viewBox="0 0 22 18.7">
  <g id="svgexport-18_11_" data-name="svgexport-18 (11)" transform="translate(0 -6.348)">
    <path id="Path_126631" data-name="Path 126631" d="M13.276,9.558a4.042,4.042,0,0,1,1.86,3,3.183,3.183,0,0,0,1.363.308,3.259,3.259,0,1,0-3.224-3.308ZM11.162,16.23a3.259,3.259,0,1,0-3.227-3.259A3.243,3.243,0,0,0,11.162,16.23Zm1.369.222H9.793a4.157,4.157,0,0,0-4.131,4.173v3.382l.009.053.231.073a18.633,18.633,0,0,0,5.617.915,11.436,11.436,0,0,0,4.9-.93l.216-.11h.023V20.625a4.156,4.156,0,0,0-4.13-4.173Zm5.338-3.364H15.152a4.035,4.035,0,0,1-1.227,2.8,4.952,4.952,0,0,1,3.506,4.745v1.042a11.027,11.027,0,0,0,4.33-.919l.216-.11H22V17.261a4.157,4.157,0,0,0-4.131-4.172ZM5.5,12.866a3.182,3.182,0,0,0,1.716-.5,4.041,4.041,0,0,1,1.5-2.572c0-.061.009-.121.009-.183A3.226,3.226,0,1,0,5.5,12.866Zm2.9,3.019A4.037,4.037,0,0,1,7.172,13.1c-.1-.007-.2-.016-.3-.016H4.131A4.157,4.157,0,0,0,0,17.261v3.382l.009.052.231.073a19.2,19.2,0,0,0,4.652.883V20.63A4.953,4.953,0,0,1,8.4,15.886Z" transform="translate(0 0)"/>
  </g>
</svg>
